<?xml version="1.0" encoding="UTF-8" standalone="no"?>
<!-- Created with Inkscape (http://www.inkscape.org/) -->
<svg xmlns:inkscape="http://www.inkscape.org/namespaces/inkscape" xmlns:rdf="http://www.w3.org/1999/02/22-rdf-syntax-ns#" xmlns="http://www.w3.org/2000/svg" xmlns:xlink="http://www.w3.org/1999/xlink" xmlns:ns1="http://sozi.baierouge.fr" xmlns:cc="http://creativecommons.org/ns#" xmlns:sodipodi="http://sodipodi.sourceforge.net/DTD/sodipodi-0.dtd" xmlns:dc="http://purl.org/dc/elements/1.1/" id="svg2" xml:space="preserve" viewBox="0 0 37.288 18.51" version="1.1" inkscape:version="0.91 r13725">
  <defs id="defs6">
    <clipPath id="clipPath22">
      <path id="path24" d="m2-0.19176h16v7h-16v-7z" inkscape:connector-curvature="0"/>
    </clipPath>
    <mask id="mask26">
      <g id="g28">
        <g id="g30" clip-path="url(#clipPath22)">
          <path id="path32" style="fill:#000000;fill-opacity:.44140" d="m2-0.19176h16v7h-16v-7z" inkscape:connector-curvature="0"/>
        </g>
      </g>
    </mask>
    <clipPath id="clipPath38">
      <path id="path40" d="m2-0.19176h16v7h-16v-7z" inkscape:connector-curvature="0"/>
    </clipPath>
    <clipPath id="clipPath42">
      <path id="path44" d="m2 0h16v7h-16v-7z" inkscape:connector-curvature="0"/>
    </clipPath>
    <linearGradient id="linearGradient50" y2="-31.002" gradientUnits="userSpaceOnUse" x2="-5.8529" gradientTransform="matrix(.6 -.00186 .00186 .6 17.89 22.08)" y1="-31.002" x1="-21.853">
      <stop id="stop52" style="stop-color:#ffffff" offset="0"/>
      <stop id="stop54" style="stop-color:#000000" offset="1"/>
    </linearGradient>
    <linearGradient id="linearGradient90" y2="10.2" gradientUnits="userSpaceOnUse" x2="46.151" gradientTransform="matrix(.6 0 0 -.6 5.5389e-7 14.13)" y1="10.2" x1="1.1006">
      <stop id="stop92" style="stop-color:#9cadb5" offset="0"/>
      <stop id="stop94" style="stop-color:#e0e0e0" offset="1"/>
    </linearGradient>
    <radialGradient id="radialGradient110" gradientUnits="userSpaceOnUse" cy="-21.613" cx="2.2554" gradientTransform="matrix(-.06528 -.5964 .5568 -.07032 24.901 10.986)" r="21.012">
      <stop id="stop112" style="stop-color:#f2db8a" offset="0"/>
      <stop id="stop114" style="stop-color:#877531" offset="1"/>
    </radialGradient>
    <radialGradient id="radialGradient128" gradientUnits="userSpaceOnUse" cy="-16.343" cx="1.939" gradientTransform="matrix(-.066 -.5964 .55576 -.07104 18.81 11.725)" r="2.9554">
      <stop id="stop130" style="stop-color:#d4c17d" offset="0"/>
      <stop id="stop132" style="stop-color:#b3a051" offset="1"/>
    </radialGradient>
    <radialGradient id="radialGradient146" gradientUnits="userSpaceOnUse" cy="-16.098" cx="7.0215" gradientTransform="matrix(-.066 -.59632 .55768 -.07056 18.56 11.781)" r="3.295">
      <stop id="stop148" style="stop-color:#d4c17d" offset="0"/>
      <stop id="stop150" style="stop-color:#b3a051" offset="1"/>
    </radialGradient>
    <radialGradient id="radialGradient164" gradientUnits="userSpaceOnUse" cy="-36.492" cx="4.6558" gradientTransform="matrix(-.06496 -.59648 .55512 -.07088 41.981 8.7714)" r="2.5399">
      <stop id="stop166" style="stop-color:#d4c17d" offset="0"/>
      <stop id="stop168" style="stop-color:#b3a051" offset="1"/>
    </radialGradient>
    <radialGradient id="radialGradient182" gradientUnits="userSpaceOnUse" cy="-21.334" cx="4.3125" gradientTransform="matrix(-.06528 -.5964 .55656 -.07 24.574 11.039)" r="19.176">
      <stop id="stop184" style="stop-color:#d4c17d" offset="0"/>
      <stop id="stop186" style="stop-color:#b3a051" offset="1"/>
    </radialGradient>
    <radialGradient id="radialGradient200" gradientUnits="userSpaceOnUse" cy="-22.418" cx="-0.499" gradientTransform="matrix(-.06544 -.5964 .55688 -.07 25.831 10.883)" r="19.718">
      <stop id="stop202" style="stop-color:#c7b577" offset="0"/>
      <stop id="stop204" style="stop-color:#bdaa57" offset="1"/>
    </radialGradient>
    <radialGradient id="radialGradient218" gradientUnits="userSpaceOnUse" cy="-22.026" cx="-.85210" gradientTransform="matrix(-.06544 -.5964 .55688 -.07 25.38 10.94)" r="19.718">
      <stop id="stop220" style="stop-color:#e3d49d" offset="0"/>
      <stop id="stop222" style="stop-color:#e0ca70" offset="1"/>
    </radialGradient>
    <radialGradient id="radialGradient236" gradientUnits="userSpaceOnUse" cy="-22.192" cx="-.7324" gradientTransform="matrix(-.06536 -.5964 .55688 -.07024 25.57 10.904)" r="24.445">
      <stop id="stop238" style="stop-color:#e6d189" offset="0"/>
      <stop id="stop240" style="stop-color:#bdaa57" offset="1"/>
    </radialGradient>
    <radialGradient id="radialGradient254" gradientUnits="userSpaceOnUse" cy="-21.855" cx="-1.0425" gradientTransform="matrix(-.06536 -.5964 .55688 -.07024 25.182 10.953)" r="24.445">
      <stop id="stop256" style="stop-color:#fff6d4" offset="0"/>
      <stop id="stop258" style="stop-color:#e0ca70" offset="1"/>
    </radialGradient>
    <radialGradient id="radialGradient272" gradientUnits="userSpaceOnUse" cy="-24.477" cx="4.4702" gradientTransform="matrix(-.06552 -.5964 .5568 -.07008 28.202 10.581)" r="17.982">
      <stop id="stop274" style="stop-color:#d6c894" offset="0"/>
      <stop id="stop276" style="stop-color:#a89642" offset="1"/>
    </radialGradient>
    <radialGradient id="radialGradient290" gradientUnits="userSpaceOnUse" cy="-24.129" cx="4.061" gradientTransform="matrix(-.06552 -.5964 .5568 -.07008 27.802 10.631)" r="17.982">
      <stop id="stop292" style="stop-color:#fff6d4" offset="0"/>
      <stop id="stop294" style="stop-color:#e0ca70" offset="1"/>
    </radialGradient>
    <radialGradient id="radialGradient308" gradientUnits="userSpaceOnUse" cy="-26.365" cx="4.2339" gradientTransform="matrix(-.06552 -.5964 .5568 -.07008 30.378 10.308)" r="16.486">
      <stop id="stop310" style="stop-color:#fff6d4" offset="0"/>
      <stop id="stop312" style="stop-color:#e0ca70" offset="1"/>
    </radialGradient>
    <clipPath id="clipPath454">
      <path id="path456" d="m3 7.8082h14v6h-14v-6z" inkscape:connector-curvature="0"/>
    </clipPath>
    <mask id="mask458">
      <g id="g460">
        <g id="g462" clip-path="url(#clipPath454)">
          <path id="path464" style="fill:#000000;fill-opacity:.62110" d="m3 7.8082h14v6h-14v-6z" inkscape:connector-curvature="0"/>
        </g>
      </g>
    </mask>
    <clipPath id="clipPath470">
      <path id="path472" d="m3 7.8082h14v6h-14v-6z" inkscape:connector-curvature="0"/>
    </clipPath>
    <clipPath id="clipPath474">
      <path id="path476" d="m3 8h14v6h-14v-6z" inkscape:connector-curvature="0"/>
    </clipPath>
    <clipPath id="clipPath542">
      <path id="path544" d="m12 13.808h4v1h-4v-1z" inkscape:connector-curvature="0"/>
    </clipPath>
    <mask id="mask546">
      <g id="g548">
        <g id="g550" clip-path="url(#clipPath542)">
          <path id="path552" style="fill:#000000;fill-opacity:.42190" d="m12 13.808h4v1h-4v-1z" inkscape:connector-curvature="0"/>
        </g>
      </g>
    </mask>
    <clipPath id="clipPath558">
      <path id="path560" d="m12 13.808h4v1h-4v-1z" inkscape:connector-curvature="0"/>
    </clipPath>
    <clipPath id="clipPath562">
      <path id="path564" d="m12 14h4v1h-4v-1z" inkscape:connector-curvature="0"/>
    </clipPath>
    <clipPath id="clipPath586">
      <path id="path588" d="m13 12.808h3v1h-3v-1z" inkscape:connector-curvature="0"/>
    </clipPath>
    <mask id="mask590">
      <g id="g592">
        <g id="g594" clip-path="url(#clipPath586)">
          <path id="path596" style="fill:#000000;fill-opacity:.42190" d="m13 12.808h3v1h-3v-1z" inkscape:connector-curvature="0"/>
        </g>
      </g>
    </mask>
    <clipPath id="clipPath602">
      <path id="path604" d="m13 12.808h3v1h-3v-1z" inkscape:connector-curvature="0"/>
    </clipPath>
    <clipPath id="clipPath606">
      <path id="path608" d="m13 13h3v1h-3v-1z" inkscape:connector-curvature="0"/>
    </clipPath>
    <clipPath id="clipPath630">
      <path id="path632" d="m15 12.808h2v1h-2v-1z" inkscape:connector-curvature="0"/>
    </clipPath>
    <mask id="mask634">
      <g id="g636">
        <g id="g638" clip-path="url(#clipPath630)">
          <path id="path640" style="fill:#000000;fill-opacity:.42190" d="m15 12.808h2v1h-2v-1z" inkscape:connector-curvature="0"/>
        </g>
      </g>
    </mask>
    <clipPath id="clipPath646">
      <path id="path648" d="m15 12.808h2v1h-2v-1z" inkscape:connector-curvature="0"/>
    </clipPath>
    <clipPath id="clipPath650">
      <path id="path652" d="m15 13h2v1h-2v-1z" inkscape:connector-curvature="0"/>
    </clipPath>
    <clipPath id="clipPath674">
      <path id="path676" d="m15 11.808h3v2h-3v-2z" inkscape:connector-curvature="0"/>
    </clipPath>
    <mask id="mask678">
      <g id="g680">
        <g id="g682" clip-path="url(#clipPath674)">
          <path id="path684" style="fill:#000000;fill-opacity:.42190" d="m15 11.808h3v2h-3v-2z" inkscape:connector-curvature="0"/>
        </g>
      </g>
    </mask>
    <clipPath id="clipPath690">
      <path id="path692" d="m15 11.808h3v2h-3v-2z" inkscape:connector-curvature="0"/>
    </clipPath>
    <clipPath id="clipPath694">
      <path id="path696" d="m15 12h3v2h-3v-2z" inkscape:connector-curvature="0"/>
    </clipPath>
    <clipPath id="clipPath718">
      <path id="path720" d="m16 12.808h3v1h-3v-1z" inkscape:connector-curvature="0"/>
    </clipPath>
    <mask id="mask722">
      <g id="g724">
        <g id="g726" clip-path="url(#clipPath718)">
          <path id="path728" style="fill:#000000;fill-opacity:.42190" d="m16 12.808h3v1h-3v-1z" inkscape:connector-curvature="0"/>
        </g>
      </g>
    </mask>
    <clipPath id="clipPath734">
      <path id="path736" d="m16 12.808h3v1h-3v-1z" inkscape:connector-curvature="0"/>
    </clipPath>
    <clipPath id="clipPath738">
      <path id="path740" d="m16 13h3v1h-3v-1z" inkscape:connector-curvature="0"/>
    </clipPath>
    <clipPath id="clipPath762">
      <path id="path764" d="m15 13.808h3v1h-3v-1z" inkscape:connector-curvature="0"/>
    </clipPath>
    <mask id="mask766">
      <g id="g768">
        <g id="g770" clip-path="url(#clipPath762)">
          <path id="path772" style="fill:#000000;fill-opacity:.42190" d="m15 13.808h3v1h-3v-1z" inkscape:connector-curvature="0"/>
        </g>
      </g>
    </mask>
    <clipPath id="clipPath778">
      <path id="path780" d="m15 13.808h3v1h-3v-1z" inkscape:connector-curvature="0"/>
    </clipPath>
    <clipPath id="clipPath782">
      <path id="path784" d="m15 14h3v1h-3v-1z" inkscape:connector-curvature="0"/>
    </clipPath>
    <clipPath id="clipPath806">
      <path id="path808" d="m14 13.808h2v1h-2v-1z" inkscape:connector-curvature="0"/>
    </clipPath>
    <mask id="mask810">
      <g id="g812">
        <g id="g814" clip-path="url(#clipPath806)">
          <path id="path816" style="fill:#000000;fill-opacity:.42190" d="m14 13.808h2v1h-2v-1z" inkscape:connector-curvature="0"/>
        </g>
      </g>
    </mask>
    <clipPath id="clipPath822">
      <path id="path824" d="m14 13.808h2v1h-2v-1z" inkscape:connector-curvature="0"/>
    </clipPath>
    <clipPath id="clipPath826">
      <path id="path828" d="m14 14h2v1h-2v-1z" inkscape:connector-curvature="0"/>
    </clipPath>
    <clipPath id="clipPath850">
      <path id="path852" d="m12 13.808h4v1h-4v-1z" inkscape:connector-curvature="0"/>
    </clipPath>
    <mask id="mask854">
      <g id="g856">
        <g id="g858" clip-path="url(#clipPath850)">
          <path id="path860" style="fill:#000000;fill-opacity:.42190" d="m12 13.808h4v1h-4v-1z" inkscape:connector-curvature="0"/>
        </g>
      </g>
    </mask>
    <clipPath id="clipPath866">
      <path id="path868" d="m12 13.808h4v1h-4v-1z" inkscape:connector-curvature="0"/>
    </clipPath>
    <clipPath id="clipPath870">
      <path id="path872" d="m12 14h4v1h-4v-1z" inkscape:connector-curvature="0"/>
    </clipPath>
    <clipPath id="clipPath906">
      <path id="path908" d="m5 10.808h5v2h-5v-2z" inkscape:connector-curvature="0"/>
    </clipPath>
    <mask id="mask910">
      <g id="g912">
        <g id="g914" clip-path="url(#clipPath906)">
          <path id="path916" style="fill:#000000;fill-opacity:.42190" d="m5 10.808h5v2h-5v-2z" inkscape:connector-curvature="0"/>
        </g>
      </g>
    </mask>
    <clipPath id="clipPath922">
      <path id="path924" d="m5 10.808h5v2h-5v-2z" inkscape:connector-curvature="0"/>
    </clipPath>
    <clipPath id="clipPath926">
      <path id="path928" d="m5 11h5v2h-5v-2z" inkscape:connector-curvature="0"/>
    </clipPath>
    <clipPath id="clipPath950">
      <path id="path952" d="m6 10.808h4v2h-4v-2z" inkscape:connector-curvature="0"/>
    </clipPath>
    <mask id="mask954">
      <g id="g956">
        <g id="g958" clip-path="url(#clipPath950)">
          <path id="path960" style="fill:#000000;fill-opacity:.42190" d="m6 10.808h4v2h-4v-2z" inkscape:connector-curvature="0"/>
        </g>
      </g>
    </mask>
    <clipPath id="clipPath966">
      <path id="path968" d="m6 10.808h4v2h-4v-2z" inkscape:connector-curvature="0"/>
    </clipPath>
    <clipPath id="clipPath970">
      <path id="path972" d="m6 11h4v2h-4v-2z" inkscape:connector-curvature="0"/>
    </clipPath>
    <clipPath id="clipPath994">
      <path id="path996" d="m9 9.8082h2v3h-2v-3z" inkscape:connector-curvature="0"/>
    </clipPath>
    <mask id="mask998">
      <g id="g1000">
        <g id="g1002" clip-path="url(#clipPath994)">
          <path id="path1004" style="fill:#000000;fill-opacity:.42190" d="m9 9.8082h2v3h-2v-3z" inkscape:connector-curvature="0"/>
        </g>
      </g>
    </mask>
    <clipPath id="clipPath1010">
      <path id="path1012" d="m9 9.8082h2v3h-2v-3z" inkscape:connector-curvature="0"/>
    </clipPath>
    <clipPath id="clipPath1014">
      <path id="path1016" d="m9 10h2v3h-2v-3z" inkscape:connector-curvature="0"/>
    </clipPath>
    <clipPath id="clipPath1038">
      <path id="path1040" d="m9 9.8082h4v3h-4v-3z" inkscape:connector-curvature="0"/>
    </clipPath>
    <mask id="mask1042">
      <g id="g1044">
        <g id="g1046" clip-path="url(#clipPath1038)">
          <path id="path1048" style="fill:#000000;fill-opacity:.42190" d="m9 9.8082h4v3h-4v-3z" inkscape:connector-curvature="0"/>
        </g>
      </g>
    </mask>
    <clipPath id="clipPath1054">
      <path id="path1056" d="m9 9.8082h4v3h-4v-3z" inkscape:connector-curvature="0"/>
    </clipPath>
    <clipPath id="clipPath1058">
      <path id="path1060" d="m9 10h4v3h-4v-3z" inkscape:connector-curvature="0"/>
    </clipPath>
    <clipPath id="clipPath1082">
      <path id="path1084" d="m10 10.808h3v2h-3v-2z" inkscape:connector-curvature="0"/>
    </clipPath>
    <mask id="mask1086">
      <g id="g1088">
        <g id="g1090" clip-path="url(#clipPath1082)">
          <path id="path1092" style="fill:#000000;fill-opacity:.42190" d="m10 10.808h3v2h-3v-2z" inkscape:connector-curvature="0"/>
        </g>
      </g>
    </mask>
    <clipPath id="clipPath1098">
      <path id="path1100" d="m10 10.808h3v2h-3v-2z" inkscape:connector-curvature="0"/>
    </clipPath>
    <clipPath id="clipPath1102">
      <path id="path1104" d="m10 11h3v2h-3v-2z" inkscape:connector-curvature="0"/>
    </clipPath>
    <clipPath id="clipPath1126">
      <path id="path1128" d="m9 11.808h3v2h-3v-2z" inkscape:connector-curvature="0"/>
    </clipPath>
    <mask id="mask1130">
      <g id="g1132">
        <g id="g1134" clip-path="url(#clipPath1126)">
          <path id="path1136" style="fill:#000000;fill-opacity:.42190" d="m9 11.808h3v2h-3v-2z" inkscape:connector-curvature="0"/>
        </g>
      </g>
    </mask>
    <clipPath id="clipPath1142">
      <path id="path1144" d="m9 11.808h3v2h-3v-2z" inkscape:connector-curvature="0"/>
    </clipPath>
    <clipPath id="clipPath1146">
      <path id="path1148" d="m9 12h3v2h-3v-2z" inkscape:connector-curvature="0"/>
    </clipPath>
    <clipPath id="clipPath1170">
      <path id="path1172" d="m8 11.808h2v2h-2v-2z" inkscape:connector-curvature="0"/>
    </clipPath>
    <mask id="mask1174">
      <g id="g1176">
        <g id="g1178" clip-path="url(#clipPath1170)">
          <path id="path1180" style="fill:#000000;fill-opacity:.42190" d="m8 11.808h2v2h-2v-2z" inkscape:connector-curvature="0"/>
        </g>
      </g>
    </mask>
    <clipPath id="clipPath1186">
      <path id="path1188" d="m8 11.808h2v2h-2v-2z" inkscape:connector-curvature="0"/>
    </clipPath>
    <clipPath id="clipPath1190">
      <path id="path1192" d="m8 12h2v2h-2v-2z" inkscape:connector-curvature="0"/>
    </clipPath>
    <clipPath id="clipPath1214">
      <path id="path1216" d="m6 11.808h4v1h-4v-1z" inkscape:connector-curvature="0"/>
    </clipPath>
    <mask id="mask1218">
      <g id="g1220">
        <g id="g1222" clip-path="url(#clipPath1214)">
          <path id="path1224" style="fill:#000000;fill-opacity:.42190" d="m6 11.808h4v1h-4v-1z" inkscape:connector-curvature="0"/>
        </g>
      </g>
    </mask>
    <clipPath id="clipPath1230">
      <path id="path1232" d="m6 11.808h4v1h-4v-1z" inkscape:connector-curvature="0"/>
    </clipPath>
    <clipPath id="clipPath1234">
      <path id="path1236" d="m6 12h4v1h-4v-1z" inkscape:connector-curvature="0"/>
    </clipPath>
  </defs>
  <g id="g10" transform="matrix(1.25 0 0 -1.25 0 18.51)">
    <g id="g12">
      <path id="path14" style="fill-rule:evenodd;fill:#d7eaf2" d="m27.93 7.351 0.121 0.028c-0.781-2.137-2.461-3.899-5.043-5.278-2.617-1.402-5.61-2.101-8.969-2.101-3.379 0-6.391 0.711-9.031 2.129-2.598 1.402-4.27 3.179-5.008 5.339l0.238-0.027c0.782-0.519 2.453-0.953 5.012-1.289 2.602-0.344 5.559-0.512 8.879-0.512 3.262 0 6.172 0.16 8.73 0.481 2.52 0.32 4.211 0.73 5.071 1.23z" inkscape:connector-curvature="0"/>
      <path id="path16" style="fill-rule:evenodd;fill:#bdd4de" d="m26.82 6.902c-0.179-0.484-0.472-0.984-0.871-1.5-0.758-1.023-1.941-2.051-3.539-3.094-1.262-0.816-2.812-1.476-4.652-1.976-0.86-0.121-1.34-0.184-1.438-0.184 2.418 0.742 4.16 1.82 5.219 3.242 0.461 0.621 0.75 1.199 0.867 1.739 0.063 0.5 0.102 0.832 0.121 0.992 1.864 0.199 3.293 0.461 4.293 0.781z" inkscape:connector-curvature="0"/>
      <g id="g18">
        <g id="g34" mask="url(#mask26)">
          <g id="g56">
            <g id="g58" clip-path="url(#clipPath38)">
              <g id="g60" transform="translate(0 -.19176)">
                <g id="g64">
                  <g id="g66" clip-path="url(#clipPath42)">
                    <g id="g68">
                      <g id="g70">
                        <g id="g72">
                          <g id="g74">
                            <path id="path76" style="fill-rule:evenodd;fill:url(#linearGradient50)" d="m17.441 5.891-1.953-5.641-3.148 0.031c-0.68 0.102-1.442 0.27-2.281 0.512-0.879 0.277-1.61 0.578-2.188 0.898-1.883 1.039-3.332 2.2-4.351 3.481-0.5 0.64-0.821 1.168-0.961 1.59l1.652-0.27c2.699-0.441 6.008-0.66 9.93-0.66l3.3 0.059z" inkscape:connector-curvature="0"/>
                          </g>
                        </g>
                      </g>
                    </g>
                  </g>
                </g>
              </g>
            </g>
          </g>
        </g>
      </g>
      <path id="path78" style="fill-rule:evenodd;fill:#bdd4de" d="m2.281 4.652c1.266-1.5 2.867-2.645 4.797-3.438-1.648 0.61-3.066 1.407-4.258 2.387-1.379 1.141-2.32 2.43-2.82 3.867l0.238-0.027c0.141-0.102 0.293-0.18 0.453-0.242 0.34-0.84 0.868-1.688 1.59-2.547z" inkscape:connector-curvature="0"/>
      <g id="g80">
        <g id="g82">
          <g id="g88">
            <path id="path96" style="fill-rule:evenodd;fill:url(#linearGradient90)" d="m23.73 11.609c2.641-1 3.961-2.199 3.961-3.598 0-1.402-1.32-2.589-3.961-3.57-2.64-1-5.82-1.5-9.539-1.5-3.742 0-6.929 0.5-9.57 1.5-2.641 0.981-3.961 2.168-3.961 3.57 0 1.399 1.32 2.598 3.961 3.598 2.641 0.98 5.828 1.473 9.57 1.473 3.719 0 6.899-0.493 9.539-1.473z" inkscape:connector-curvature="0"/>
          </g>
        </g>
      </g>
      <path id="path98" style="fill-rule:evenodd;fill:#ffffff" d="m28.02 8.371h-0.872c-0.179 1.238-1.527 2.289-4.05 3.148-2.496 0.86-5.496 1.289-8.996 1.289-3.481 0-6.473-0.429-8.973-1.289-2.52-0.859-3.867-1.91-4.051-3.148h-1.019c0.32 1.359 1.812 2.5 4.472 3.418 2.699 0.922 5.867 1.383 9.508 1.383 3.66 0 6.832-0.461 9.512-1.383 2.679-0.918 4.168-2.059 4.469-3.418z" inkscape:connector-curvature="0"/>
      <g id="g100">
        <g id="g102">
          <g id="g108">
            <path id="path116" style="fill-rule:evenodd;fill:url(#radialGradient110)" d="m26.969 6.3c-0.899-0.519-2.199-1.089-3.899-1.711-2.461-0.898-4.57-1.359-6.328-1.378-1.922-0.02-4.019 0.07-6.301 0.269-2.082 0.199-3.671 0.43-4.769 0.688-0.902 0.222-1.781 0.562-2.641 1.019-0.761 0.402-1.152 0.684-1.172 0.844-0.019 0.078 0.102 0.226 0.36 0.449 0.301 0.258 0.461 0.418 0.48 0.481 0.321 0.898 1.59 1.668 3.813 2.308 0.578 0.16 1.168 0.641 1.769 1.442 0.559 0.757 1.028 1.148 1.41 1.168 1.879 0.14 3.418 0.121 4.618-0.059 0.421-0.059 1.07-0.27 1.953-0.629 0.718-0.301 1.328-0.441 1.828-0.422 0.461 0.02 1.5 0.102 3.121 0.242 1.461 0.078 2.359-0.039 2.699-0.359 0.5-0.48 1.031-1.09 1.59-1.832 0.66-0.84 0.98-1.41 0.961-1.711-0.02-0.219 0.168-0.367 0.57-0.449 0.258-0.059 0.239-0.18-0.062-0.36z" inkscape:connector-curvature="0"/>
          </g>
        </g>
      </g>
      <g id="g118">
        <g id="g120">
          <g id="g126">
            <path id="path134" style="fill-rule:evenodd;fill:url(#radialGradient128)" d="m9.691 11.879c0.579 0.101 0.668-0.04 0.27-0.418-0.5-0.5-0.68-0.809-0.539-0.93 0.156-0.16 0.5-0.141 1.016 0.058 0.484 0.2 0.742 0.25 0.781 0.153 0.082-0.223-0.071-0.41-0.449-0.57-0.422-0.18-0.981-0.211-1.68-0.09-0.699 0.14-0.902 0.461-0.602 0.961 0.301 0.457 0.703 0.738 1.203 0.836z" inkscape:connector-curvature="0"/>
          </g>
        </g>
      </g>
      <g id="g136">
        <g id="g138">
          <g id="g144">
            <path id="path152" style="fill-rule:evenodd;fill:url(#radialGradient146)" d="m10.352 8.941c0.3 0.039 0.449-0.09 0.449-0.391 0-0.16-0.039-0.429-0.121-0.808-0.039-0.281-0.149-0.524-0.328-0.723-0.2-0.219-0.422-0.316-0.661-0.301-0.218 0.043-0.589 0.043-1.109 0l-0.719-0.058c0.059 0.121 0.168 0.242 0.328 0.359 0.301 0.262 0.68 0.403 1.141 0.422 0.398 0.039 0.59 0.289 0.57 0.75-0.004 0.481 0.149 0.727 0.45 0.75z" inkscape:connector-curvature="0"/>
          </g>
        </g>
      </g>
      <g id="g154">
        <g id="g156">
          <g id="g162">
            <path id="path170" style="fill-rule:evenodd;fill:url(#radialGradient164)" d="m22.289 8.672c0.719-0.184 0.879-0.512 0.481-0.993-0.399-0.461-1.008-0.578-1.829-0.359-0.781 0.199-0.91 0.512-0.39 0.93 0.5 0.441 1.078 0.582 1.738 0.422z" inkscape:connector-curvature="0"/>
          </g>
        </g>
      </g>
      <g id="g172">
        <g id="g174">
          <g id="g180">
            <path id="path188" style="fill-rule:evenodd;fill:url(#radialGradient182)" d="m25.23 7.23c-0.382 0.199-0.882 0.488-1.5 0.871-0.699 0.438-1.16 0.719-1.382 0.84-0.657 0.398-1.618 0.551-2.879 0.449-0.641-0.101-1.16-0.172-1.559-0.211-0.719-0.078-1.262-0.039-1.621 0.121-0.16 0.059-0.359 0.239-0.598 0.539-0.16 0.18-0.55 0.262-1.171 0.243-0.54-0.02-1.27-0.16-2.192-0.422-0.918-0.258-1.578-0.399-1.98-0.418-0.778-0.063-1.309-0.133-1.586-0.211-0.485-0.121-0.84-0.359-1.082-0.719-0.379-0.543-0.672-0.91-0.871-1.109-0.34-0.344-0.719-0.543-1.141-0.602-0.5-0.082-0.969-0.211-1.41-0.39-0.5-0.18-0.758-0.34-0.781-0.481-0.055-0.156-0.055-0.308 0-0.465-0.477 0.188-0.789 0.344-0.93 0.465-0.5 0.422-0.418 0.762 0.242 1.02 0.52 0.218 1.191 0.332 2.012 0.332 0.558 0 1.008 0.117 1.347 0.359 0.161 0.117 0.403 0.379 0.723 0.777 0.16 0.204 0.387 0.512 0.688 0.934 0.339 0.316 0.871 0.469 1.589 0.449 0.661-0.039 1.301 0.059 1.922 0.301 0.317 0.141 0.739 0.316 1.258 0.539 0.461 0.121 0.809 0.18 1.051 0.18 0.34 0 0.859-0.078 1.559-0.239 0.281-0.062 0.64-0.261 1.082-0.601 0.238-0.199 0.878-0.262 1.918-0.18 0.902 0.059 1.871 0.149 2.91 0.27 0.683-0.02 1.293-0.258 1.832-0.719 0.379-0.32 1.109-0.742 2.187-1.262 0.801-0.379 1.18-0.668 1.141-0.871-0.039-0.437-0.117-0.847-0.238-1.226-0.161-0.5-0.313-0.653-0.45-0.454-0.062 0.102 0.008 0.411 0.207 0.93 0.184 0.442 0.082 0.762-0.297 0.961zm-6.871 0c-0.738 0.301-1.25 0.488-1.531 0.57-0.48 0.161-0.859 0.161-1.137 0-0.121-0.058-0.55-0.218-1.293-0.48-0.558-0.199-0.929-0.402-1.109-0.602-0.379-0.457-0.68-0.82-0.898-1.078-0.442-0.519-0.789-0.82-1.051-0.902-0.399-0.117-0.891-0.188-1.469-0.207-0.66-0.02-1.082 0.07-1.262 0.269-0.238 0.258-0.41 0.418-0.507 0.481-0.204 0.098-0.524 0.168-0.961 0.207-0.481 0.043-0.961-0.047-1.442-0.27-0.441-0.211-0.605-0.394-0.496-0.554-0.371 0.117-0.707 0.23-1.004 0.332 0.047 0.031 0.098 0.066 0.153 0.105 0.48 0.34 1.078 0.641 1.8 0.899 0.778 0.3 1.348 0.402 1.707 0.3 0.18-0.039 0.461-0.32 0.84-0.839 0.301-0.403 0.692-0.551 1.172-0.454 0.66 0.161 1.109 0.313 1.352 0.454 0.257 0.16 0.5 0.457 0.718 0.898 0.598 1.102 1.352 1.652 2.25 1.652 0.262 0 0.579 0.137 0.961 0.418 0.301 0.219 0.7 0.25 1.2 0.09 0.878-0.281 1.808-0.519 2.789-0.719 0.382-0.101 0.91-0.109 1.589-0.031 0.54 0.063 0.969-0.019 1.29-0.238 0.402-0.301 0.621-0.52 0.66-0.66 0-0.039-0.051-0.289-0.149-0.75-0.062-0.262 0.047-0.672 0.328-1.231 0.2-0.422 0.192-0.64-0.031-0.66-0.219-0.019-0.41-0.082-0.57-0.18-0.039-0.019-0.078 0.02-0.117 0.118-0.039 0.183-0.071 0.492-0.09 0.933-0.039 0.516-0.031 0.918 0.027 1.199 0.16 0.68-0.219 1.02-1.137 1.02-0.121 0-0.519-0.07-1.199-0.211-0.441-0.078-0.902-0.039-1.383 0.121zm-5.757-3.422c-0.661-0.058-1.063-0.109-1.204-0.148-0.238-0.082-0.398-0.129-0.476-0.153-0.121-0.039-0.402-0.058-0.844-0.058-0.234 0-0.605 0.055-1.109 0.164 0.265 0.059 0.758 0.191 1.469 0.406 0.722 0.242 1.273 0.36 1.652 0.36h1.168c0.34 0.062 0.64 0.25 0.902 0.57 0.32 0.383 0.84 0.672 1.559 0.871 0.781 0.199 1.351 0.16 1.711-0.121 0.34-0.258 0.781-0.481 1.32-0.66 0.398-0.117 0.738-0.188 1.02-0.207 0.218-0.02 0.488-0.071 0.808-0.153 0.34-0.078 0.551-0.16 0.629-0.238 0.121-0.082 0.133-0.254 0.031-0.512-0.117-0.242-0.297-0.328-0.539-0.269-0.199 0.058-0.558 0.219-1.078 0.48-0.641 0.34-1.09 0.559-1.351 0.66-0.602 0.258-1.02 0.418-1.262 0.481-0.481 0.117-0.899 0.098-1.258-0.063-0.281-0.117-0.613-0.316-0.992-0.597-0.379-0.262-0.668-0.442-0.867-0.543-0.262-0.098-0.692-0.188-1.289-0.27zm-9.122 1.457c0.208-0.086 0.446-0.176 0.719-0.269-0.301-0.176-0.508-0.149-0.629 0.074-0.043 0.066-0.07 0.129-0.09 0.195zm1.723-0.601c0.293-0.086 0.609-0.184 0.949-0.285 1.188-0.356 2.125-0.614 2.817-0.762-0.031-0.008-0.063-0.012-0.09-0.016-0.418-0.062-1.117 0.059-2.098 0.36-0.902 0.3-1.422 0.527-1.558 0.687l-0.02 0.016z" inkscape:connector-curvature="0"/>
          </g>
        </g>
      </g>
      <g id="g190">
        <g id="g192">
          <g id="g198">
            <path id="path206" style="fill-rule:evenodd;fill:url(#radialGradient200)" d="m25.352 9.3c-0.321 0.442-0.774 0.711-1.352 0.809-1.301 0.262-2.52 0.422-3.66 0.48-0.539 0.043-1.16 0.301-1.86 0.782-0.757 0.5-1.32 0.781-1.679 0.84-0.742 0.242-1.293 0.39-1.653 0.449-0.64 0.14-1.308-0.008-2.007-0.449-0.981-0.68-1.672-1.149-2.071-1.411-0.64-0.418-1.191-0.648-1.652-0.691-0.141-0.02-0.797 0.043-1.98 0.184-0.821 0.078-1.411-0.012-1.77-0.274-0.719-0.617-1.238-1.058-1.559-1.316-0.539-0.481-0.761-0.551-0.66-0.211 0.5 1.597 1.36 2.398 2.578 2.398h1.141c1.781-0.199 2.973-0.039 3.57 0.481 0.723 0.601 1.461 1.101 2.223 1.5 1.137 0.621 2.059 0.851 2.758 0.691 0.48-0.121 1.179-0.519 2.101-1.199 0.879-0.641 1.688-1.012 2.43-1.113 1.66-0.219 2.539-0.34 2.641-0.36 0.816-0.14 1.457-0.328 1.918-0.57 0.558-0.316 1.011-0.68 1.351-1.078 0.379-0.422 0.547-0.801 0.508-1.141-0.039-0.359-0.391-0.738-1.047-1.14-0.683-0.418-1.433-0.672-2.254-0.75-0.597-0.059-1.25-0.352-1.949-0.872-0.66-0.5-1.129-0.75-1.41-0.75h-0.988c-0.122 0.02-0.18 0.071-0.18 0.153 0 0.137 0.297 0.328 0.898 0.566 0.481 0.184 1.551 0.571 3.211 1.172 1.481 0.559 2.328 1.039 2.551 1.442 0.262 0.457 0.211 0.917-0.148 1.378z" inkscape:connector-curvature="0"/>
          </g>
        </g>
      </g>
      <g id="g208">
        <g id="g210">
          <g id="g216">
            <path id="path224" style="fill-rule:evenodd;fill:url(#radialGradient218)" d="m25.141 9.539c-0.34 0.441-0.789 0.711-1.352 0.812-1.301 0.258-2.519 0.418-3.66 0.481-0.539 0.039-1.16 0.3-1.859 0.777-0.758 0.5-1.329 0.781-1.711 0.844-0.739 0.238-1.289 0.386-1.649 0.449-0.621 0.141-1.281-0.012-1.98-0.449-1-0.684-1.692-1.153-2.071-1.41-0.64-0.422-1.199-0.653-1.679-0.692-0.141-0.019-0.789 0.039-1.953 0.18-0.84 0.082-1.43-0.012-1.77-0.27-0.719-0.621-1.238-1.058-1.559-1.32-0.539-0.48-0.757-0.551-0.66-0.211 0.5 1.602 1.364 2.399 2.582 2.399h1.141c1.777-0.2 2.969-0.051 3.57 0.453 0.637 0.578 1.379 1.09 2.219 1.527 1.141 0.621 2.059 0.852 2.758 0.691 0.461-0.121 1.16-0.519 2.101-1.199 0.879-0.64 1.692-1.012 2.43-1.113 1.699-0.219 2.582-0.34 2.641-0.359 0.8-0.141 1.429-0.329 1.89-0.571 0.559-0.316 1.02-0.679 1.379-1.078 0.383-0.422 0.551-0.801 0.512-1.141-0.039-0.359-0.391-0.738-1.051-1.14-0.699-0.418-1.449-0.668-2.25-0.75-0.621-0.059-1.269-0.352-1.953-0.871-0.66-0.5-1.137-0.75-1.437-0.75h-0.961l0.66 0.539c0.558 0.422 1.14 0.75 1.738 0.992 0.484 0.18 1.27 0.43 2.371 0.75 0.922 0.301 1.492 0.648 1.711 1.051 0.262 0.461 0.211 0.922-0.148 1.379z" inkscape:connector-curvature="0"/>
          </g>
        </g>
      </g>
      <g id="g226">
        <g id="g228">
          <g id="g234">
            <path id="path242" style="fill-rule:evenodd;fill:url(#radialGradient236)" d="m25.199 9.031c-0.66 0-1.328 0.269-2.008 0.808-0.363 0.321-0.851 0.84-1.472 1.563-0.36 0.437-0.981 0.629-1.86 0.566-0.781-0.039-1.461-0.226-2.039-0.566-0.761-0.441-1.332-0.844-1.711-1.203-0.519-0.52-0.371-0.75 0.45-0.688 0.183 0 0.871 0.161 2.07 0.481 0.582 0.16 1.141 0 1.68-0.481 0.441-0.422 0.933-0.922 1.472-1.5 0.442-0.359 0.989-0.5 1.649-0.422 0.82 0.102 1.511-0.097 2.07-0.597 0.582-0.52 0.453-0.961-0.391-1.32-0.738-0.321-1.199-0.442-1.379-0.36l-0.031 0.176 0.75 0.453c0.383 0.34 0.332 0.598-0.148 0.777-0.321 0.141-0.84 0.231-1.559 0.274-0.562 0.019-0.992 0.16-1.293 0.418-0.5 0.539-0.879 0.941-1.14 1.199-0.457 0.48-0.911 0.742-1.348 0.781-0.359 0.039-0.852-0.011-1.469-0.148-0.742-0.141-1.371-0.211-1.89-0.211-0.301 0-0.891-0.09-1.774-0.27-0.418-0.101-0.719 0.02-0.898 0.36-0.059 0.117-0.301 0.687-0.719 1.711-0.32 0.777-0.59 1.257-0.813 1.437-0.418 0.379-0.898 0.61-1.437 0.692-0.723 0.097-1.16-0.262-1.32-1.082-0.141-0.801 0.109-1.508 0.75-2.129 0.359-0.36 0.918-0.832 1.679-1.411 1.039-1.101 1.391-1.832 1.051-2.191-0.398-0.398-0.648-0.629-0.75-0.687-0.461-0.219-1.07-0.211-1.832 0.027-0.738 0.242-1.559 0.621-2.457 1.141-0.883 0.543-1.449 0.89-1.711 1.05-0.398 0.243-0.969 0.332-1.711 0.27-0.719-0.078-1.129-0.258-1.23-0.539-0.078-0.281 0.082-0.539 0.48-0.781 0.36-0.219 0.852-0.387 1.469-0.508 0.402-0.082 0.851-0.16 1.351-0.242 0.442-0.059 0.911-0.188 1.411-0.391 0.16-0.059 0.73-0.52 1.711-1.379 0.66-0.578 1.308-0.719 1.949-0.418 0.363 0.156 0.972 0.738 1.832 1.738 0.699 0.821 1.508 1.289 2.429 1.41 0.801 0.083 1.551 0.172 2.25 0.27 0.418-0.02 1.059-0.238 1.918-0.66 0.704-0.34 1.332-0.559 1.891-0.66 0.32-0.059 0.52-0.157 0.602-0.297 0.179-0.32 0.808-0.703 1.886-1.141l-1.347-0.39c0.019 0.101-0.032 0.218-0.153 0.359-0.218 0.281-0.636 0.539-1.257 0.781-0.102 0.039-0.711 0.309-1.829 0.809-0.601 0.262-1.152 0.41-1.652 0.453-0.582 0.039-1.211-0.02-1.891-0.184-0.64-0.136-1.168-0.34-1.589-0.597-0.301-0.18-0.68-0.539-1.141-1.082-0.48-0.559-0.75-0.86-0.809-0.899-0.718-0.601-1.55-0.762-2.488-0.48-0.422 0.121-0.902 0.398-1.441 0.84-0.52 0.441-1.051 0.73-1.59 0.871-1.063 0.257-1.844 0.457-2.344 0.597-0.898 0.243-1.539 0.481-1.918 0.719-0.918 0.582-1.359 1.141-1.32 1.684 0.082 0.679 0.699 1.117 1.859 1.316s2.113 0.063 2.852-0.418c0.48-0.32 1.121-0.82 1.922-1.5 0.82-0.558 1.777-0.918 2.879-1.082 1.16-0.16 1.398 0.191 0.718 1.051-0.218 0.281-1.031 1.082-2.429 2.402-0.782 0.738-1.2 1.387-1.262 1.949-0.059 0.622 0.281 1.239 1.023 1.86 0.719 0.582 1.508 0.699 2.368 0.359 0.781-0.32 1.41-0.918 1.89-1.801 0.039-0.058 0.219-0.75 0.539-2.066 0.102-0.422 0.543-0.363 1.321 0.18 1.679 1.136 2.812 1.859 3.39 2.16 1.399 0.719 2.469 0.918 3.211 0.597 0.617-0.277 1.012-0.609 1.172-0.988 0.238-0.519 0.527-0.922 0.867-1.199 1-0.863 2.133-1.121 3.391-0.781 0.379 0.117 0.879-0.063 1.5-0.539 0.621-0.481 0.969-0.711 1.051-0.692 0.359 0.121 0.589 0.141 0.691 0.059 0.039-0.039 0.047-0.09 0.027-0.149 0-0.519-0.148-0.781-0.449-0.781-0.121 0-0.351 0.18-0.691 0.539-0.34 0.403-0.641 0.641-0.899 0.723-0.281 0.058-0.609 0.078-0.988 0.058-0.742-0.039-1.273-0.058-1.594-0.058z" inkscape:connector-curvature="0"/>
          </g>
        </g>
      </g>
      <g id="g244">
        <g id="g246">
          <g id="g252">
            <path id="path260" style="fill-rule:evenodd;fill:url(#radialGradient254)" d="m25.02 9.211c-0.661 0-1.329 0.281-2.012 0.839-0.34 0.282-0.828 0.789-1.469 1.532-0.359 0.437-0.98 0.629-1.859 0.57-0.801-0.043-1.481-0.23-2.039-0.57-0.782-0.442-1.352-0.84-1.711-1.203-0.5-0.5-0.352-0.731 0.449-0.688 0.18 0 0.883 0.16 2.101 0.481 0.579 0.16 1.129 0 1.649-0.481 0.441-0.422 0.93-0.922 1.473-1.5 0.457-0.359 1.007-0.5 1.648-0.422 0.82 0.121 1.512-0.078 2.07-0.597 0.582-0.5 0.45-0.93-0.39-1.29-0.739-0.32-1.2-0.453-1.379-0.39l-0.031 0.18 0.75 0.449c0.382 0.34 0.332 0.609-0.149 0.808-0.34 0.141-0.851 0.231-1.531 0.274-0.582 0.015-1.012 0.148-1.289 0.386-0.5 0.543-0.879 0.954-1.141 1.231-0.48 0.48-0.93 0.742-1.351 0.781-0.36 0.02-0.86-0.031-1.5-0.152-0.719-0.16-1.352-0.238-1.887-0.238-0.301 0-0.891-0.09-1.774-0.27-0.418-0.082-0.718 0.039-0.898 0.359-0.039 0.079-0.281 0.649-0.719 1.711-0.32 0.758-0.59 1.239-0.812 1.438-0.418 0.402-0.899 0.633-1.442 0.691-0.718 0.121-1.156-0.238-1.316-1.082-0.141-0.777 0.109-1.48 0.75-2.097 0.359-0.36 0.918-0.832 1.68-1.411 1.019-1.14 1.371-1.871 1.05-2.191-0.359-0.398-0.609-0.641-0.75-0.719-0.461-0.218-1.07-0.211-1.832 0.032-0.738 0.257-1.558 0.64-2.457 1.136-0.882 0.563-1.453 0.922-1.711 1.082-0.402 0.219-0.968 0.301-1.711 0.242-0.718-0.082-1.128-0.261-1.23-0.543-0.078-0.281 0.082-0.539 0.48-0.781 0.36-0.219 0.852-0.386 1.469-0.508 0.403-0.082 0.852-0.16 1.352-0.242 0.441-0.058 0.91-0.187 1.41-0.386 0.18-0.063 0.75-0.512 1.711-1.352 0.66-0.602 1.308-0.75 1.949-0.449 0.359 0.179 0.973 0.758 1.832 1.738 0.699 0.82 1.508 1.289 2.43 1.41 1.48 0.18 2.23 0.27 2.25 0.27 0.398 0 1.039-0.219 1.918-0.66 0.703-0.34 1.332-0.559 1.89-0.661 0.321-0.058 0.52-0.16 0.602-0.296 0.18-0.301 0.809-0.684 1.887-1.141l-1.352-0.359c0.024 0.097-0.027 0.218-0.148 0.359-0.219 0.281-0.641 0.539-1.258 0.777-0.883 0.383-1.492 0.641-1.832 0.781-0.598 0.262-1.149 0.411-1.649 0.454-0.601 0.039-1.23-0.012-1.89-0.153-0.641-0.16-1.172-0.359-1.59-0.601-0.301-0.18-0.68-0.539-1.141-1.078-0.48-0.582-0.75-0.891-0.808-0.93-0.723-0.602-1.551-0.762-2.492-0.481-0.399 0.118-0.879 0.411-1.442 0.872-0.519 0.437-1.051 0.718-1.59 0.839-1.058 0.258-1.84 0.457-2.34 0.598-0.898 0.262-1.539 0.512-1.918 0.75-0.941 0.582-1.378 1.129-1.32 1.652 0.078 0.68 0.699 1.118 1.86 1.321 1.16 0.218 2.109 0.086 2.851-0.391 0.481-0.32 1.121-0.832 1.918-1.531 0.82-0.559 1.781-0.91 2.883-1.051 1.16-0.16 1.398 0.18 0.719 1.02-0.223 0.281-1.032 1.082-2.43 2.402-0.781 0.738-1.199 1.398-1.262 1.98-0.058 0.618 0.281 1.227 1.02 1.828 0.719 0.583 1.511 0.7 2.371 0.36 0.781-0.32 1.41-0.91 1.89-1.77 0.04-0.058 0.219-0.75 0.54-2.07 0.101-0.418 0.539-0.371 1.32 0.152 1.719 1.157 2.851 1.879 3.39 2.157 1.399 0.742 2.469 0.941 3.211 0.601 0.618-0.281 1.008-0.609 1.168-0.988 0.243-0.52 0.532-0.922 0.871-1.199 1.02-0.883 2.149-1.133 3.391-0.754 0.457 0.121 0.899 0.09 1.32-0.09 0.399-0.18 0.668-0.438 0.809-0.777 0.18-0.442 0.559-0.602 1.141-0.481 0-0.5-0.149-0.75-0.45-0.75-0.121 0-0.351 0.18-0.691 0.539-0.34 0.399-0.641 0.629-0.898 0.688-0.282 0.062-0.614 0.082-0.993 0.062-0.738-0.039-1.269-0.058-1.589-0.058z" inkscape:connector-curvature="0"/>
          </g>
        </g>
      </g>
      <g id="g262">
        <g id="g264">
          <g id="g270">
            <path id="path278" style="fill-rule:evenodd;fill:url(#radialGradient272)" d="m25.5 8.308c0.539-0.238 0.91-0.496 1.109-0.777 0.262-0.34 0.313-0.77 0.153-1.289-0.082-0.262-0.184-0.481-0.301-0.66l-0.961-0.512 0.629 1.199c0.281 0.5 0.031 1.02-0.75 1.563-0.18 0.117-0.887 0.5-2.129 1.136-0.559 0.481-0.988 0.774-1.289 0.871-0.481 0.122-1.399-0.179-2.762-0.898-1.277-0.699-2.59-1.051-3.929-1.051h-2.161c-0.297-0.14-0.816-0.082-1.558 0.18-0.86 0.301-1.559 0.441-2.098 0.418-0.703-0.02-1.293-0.27-1.773-0.75-0.078-0.098-0.36-0.5-0.84-1.199-0.141-0.219-0.387-0.52-0.75-0.899-0.258-0.34-0.301-0.722-0.117-1.14 0.179-0.422 0.699-0.782 1.558-1.082 0.418-0.141 0.821-0.239 1.199-0.301-0.281-0.059-1.019 0.062-2.218 0.363-1.582 0.418-2.039 1.117-1.383 2.098 0.164 0.242 0.371 0.461 0.633 0.66 0.218 0.16 0.461 0.48 0.718 0.961 0.442 0.781 1.122 1.359 2.04 1.738 1.121 0.481 2.261 0.442 3.421-0.117 0.36-0.16 0.719-0.262 1.079-0.301 0.203-0.019 0.632-0.031 1.289-0.031 1.543 0 2.621 0.152 3.242 0.453 0.258 0.098 0.871 0.367 1.828 0.809 0.922 0.379 1.613 0.57 2.07 0.57 0.52 0 0.961-0.102 1.321-0.301 0.218-0.101 0.64-0.398 1.261-0.898 0.321-0.262 0.809-0.532 1.469-0.813z" inkscape:connector-curvature="0"/>
          </g>
        </g>
      </g>
      <g id="g280">
        <g id="g282">
          <g id="g288">
            <path id="path296" style="fill-rule:evenodd;fill:url(#radialGradient290)" d="m25.352 8.609c0.519-0.238 0.886-0.5 1.109-0.777 0.238-0.344 0.281-0.77 0.117-1.293-0.078-0.258-0.18-0.481-0.297-0.66l-0.961-0.54 0.629 1.2c0.281 0.523 0.031 1.05-0.75 1.59-0.199 0.14-0.91 0.519-2.129 1.14-0.558 0.481-0.992 0.762-1.289 0.84-0.48 0.121-1.402-0.18-2.761-0.898-1.282-0.68-2.59-1.02-3.93-1.02-1.399 0-2.121-0.012-2.16-0.031-0.301-0.141-0.821-0.078-1.559 0.179-0.879 0.301-1.578 0.454-2.101 0.454-0.7-0.02-1.278-0.282-1.739-0.782-0.261-0.261-0.551-0.648-0.871-1.172-0.14-0.218-0.39-0.519-0.75-0.898-0.238-0.359-0.269-0.75-0.09-1.172 0.18-0.418 0.692-0.769 1.532-1.051 0.418-0.156 0.82-0.269 1.199-0.328-0.281-0.058-1.02 0.071-2.219 0.391-1.562 0.418-2.023 1.121-1.383 2.098 0.16 0.222 0.371 0.433 0.629 0.632 0.223 0.18 0.461 0.508 0.723 0.989 0.437 0.781 1.121 1.359 2.039 1.742 1.121 0.457 2.262 0.418 3.422-0.121 0.359-0.18 0.718-0.282 1.078-0.301 0.14-0.02 0.57-0.031 1.289-0.031 1.519 0 2.601 0.14 3.242 0.422 0.258 0.101 0.871 0.371 1.828 0.808 0.922 0.383 1.621 0.57 2.102 0.57 0.519 0 0.949-0.089 1.289-0.269 0.238-0.117 0.672-0.43 1.289-0.93 0.32-0.261 0.812-0.519 1.473-0.781z" inkscape:connector-curvature="0"/>
          </g>
        </g>
      </g>
      <g id="g298">
        <g id="g300">
          <g id="g306">
            <path id="path314" style="fill-rule:evenodd;fill:url(#radialGradient308)" d="m25.949 6.539c-0.418 0.64-1 1.402-1.738 2.281-0.383 0.422-0.672 0.68-0.871 0.781-0.301 0.16-0.649 0.129-1.051-0.09-0.519-0.3-0.969-0.648-1.348-1.05-0.461-0.5-0.664-0.961-0.601-1.379 0.238-1.481 0.359-2.41 0.359-2.793 0-0.957-1.558-1.379-4.679-1.258-0.282 0-0.329 0.512-0.153 1.531 0.203 1.141-0.07 1.899-0.808 2.277-0.762 0.383-1.442 0.372-2.039-0.027-0.883-0.582-1.461-0.89-1.743-0.93-0.738-0.14-1.429-0.41-2.07-0.812-0.578-0.34-0.98-0.688-1.199-1.051-0.262-0.437-0.59-0.609-0.988-0.508 0.078 0.219 0.218 0.469 0.418 0.75 0.398 0.559 0.878 0.981 1.441 1.258 0.238 0.102 0.949 0.383 2.129 0.84 0.82 0.344 1.379 0.633 1.68 0.871 0.359 0.32 0.851 0.5 1.468 0.539 0.621 0.02 1.153-0.109 1.59-0.387 0.844-0.562 1.262-1.441 1.262-2.64 0-0.66 0.012-1.012 0.031-1.051 0.059-0.18 0.359-0.289 0.899-0.332 0.679-0.039 1.261 0.09 1.738 0.391 0.543 0.339 0.722 0.789 0.543 1.351-0.301 0.719-0.5 1.238-0.602 1.559-0.14 0.543-0.051 1.039 0.274 1.5 0.515 0.801 1.199 1.41 2.039 1.832 1.097 0.558 1.949 0.398 2.547-0.481 0.621-0.882 1.043-1.441 1.261-1.679 0.059-0.063 0.219-0.192 0.481-0.391 0.261-0.18 0.39-0.652 0.39-1.41l-0.418-0.375c0.09 0.211 0.012 0.508-0.242 0.883z" inkscape:connector-curvature="0"/>
          </g>
        </g>
      </g>
      <path id="path316" style="fill-rule:evenodd;fill:#ffffff" d="m9.27 13.679c0.179 0 0.179-0.058 0-0.179-0.418-0.239-0.668-0.391-0.75-0.45-0.399-0.281-0.598-0.902-0.598-1.859 0-0.203-0.063-0.191-0.184 0.027-0.097 0.223-0.14 0.52-0.117 0.903 0.02 0.418 0.219 0.789 0.598 1.109 0.34 0.301 0.691 0.449 1.051 0.449z" inkscape:connector-curvature="0"/>
      <path id="path318" style="fill-rule:evenodd;fill:#ffffff" d="m2.641 9.121c0.437 0 0.82-0.071 1.14-0.211 0.321-0.141 0.36-0.211 0.117-0.211-0.078 0-0.406-0.082-0.988-0.238-0.558-0.141-0.969-0.2-1.23-0.184-0.36 0.02-0.379 0.16-0.059 0.422 0.32 0.281 0.66 0.422 1.02 0.422z" inkscape:connector-curvature="0"/>
      <path id="path320" style="fill-rule:evenodd;fill:#ffffff" d="m12.48 11.672c0.18-0.524 0.211-0.782 0.09-0.782-0.14 0-0.25 0.168-0.332 0.512-0.058 0.297-0.058 0.488 0 0.566 0.063 0.063 0.141-0.039 0.242-0.296z" inkscape:connector-curvature="0"/>
      <path id="path322" style="fill-rule:evenodd;fill:#ffffff" d="m15.211 13.558c0.258-0.019 0.457-0.117 0.598-0.297 0.121-0.183 0.043-0.222-0.239-0.121-0.179 0.059-0.461 0.071-0.84 0.032-0.382-0.043-0.609-0.043-0.691 0-0.16 0.039-0.07 0.117 0.27 0.238 0.343 0.121 0.64 0.172 0.902 0.148z" inkscape:connector-curvature="0"/>
      <path id="path324" style="fill-rule:evenodd;fill:#ffffff" d="m20.52 12.961c0.261-0.082 0.378-0.18 0.359-0.301-0.02-0.121-0.16-0.129-0.418-0.031-0.184 0.082-0.512 0.043-0.992-0.118-0.438-0.14-0.707-0.179-0.809-0.121-0.16 0.098 0.039 0.239 0.598 0.418 0.543 0.18 0.961 0.231 1.262 0.153z" inkscape:connector-curvature="0"/>
      <path id="path326" style="fill-rule:evenodd;fill:#ffffff" d="m14.492 9.961c0.356 0.101 0.488 0.027 0.387-0.211-0.098-0.243-0.328-0.36-0.688-0.36-0.343 0-0.421 0.078-0.242 0.239 0.141 0.16 0.321 0.273 0.543 0.332z" inkscape:connector-curvature="0"/>
      <path id="path328" style="fill-rule:evenodd;fill:#ffffff" d="m26.879 9.871c0.5-0.02 0.613-0.102 0.332-0.242-0.281-0.118-0.551-0.168-0.813-0.149-0.218 0.02-0.25 0.09-0.089 0.211 0.14 0.141 0.332 0.199 0.57 0.18z" inkscape:connector-curvature="0"/>
      <path id="path330" style="fill-rule:evenodd;fill:#ffffff" d="m10.051 9.3c0.398-0.082 0.488-0.14 0.269-0.179-0.218-0.043-0.48-0.032-0.781 0.027-0.199 0.043-0.539-0.008-1.019-0.148-0.34-0.082-0.469-0.09-0.391-0.032 0.164 0.141 0.453 0.243 0.871 0.301 0.422 0.082 0.77 0.09 1.051 0.031z" inkscape:connector-curvature="0"/>
      <path id="path332" style="fill-rule:evenodd;fill:#ffffff" d="m4.98 10.769c0.282 0.063 0.461 0.07 0.54 0.031 0.082-0.039 0-0.101-0.239-0.179-0.16-0.063-0.371-0.242-0.629-0.543-0.222-0.239-0.371-0.317-0.453-0.239-0.097 0.102-0.027 0.27 0.211 0.512 0.219 0.238 0.41 0.379 0.57 0.418z" inkscape:connector-curvature="0"/>
      <path id="path334" style="fill-rule:evenodd;fill:#ffffff" d="m15.422 7.32c0.156-0.082 0.34-0.219 0.539-0.418 0.18-0.223 0.289-0.422 0.328-0.602 0.059-0.3-0.129-0.16-0.57 0.418-0.117 0.184-0.36 0.321-0.719 0.422-0.379 0.117-0.59 0.199-0.629 0.239-0.101 0.101-0.031 0.152 0.207 0.152 0.262-0.02 0.543-0.09 0.844-0.211z" inkscape:connector-curvature="0"/>
      <path id="path336" style="fill-rule:evenodd;fill:#ffffff" d="m17.672 7.082c0.359-0.02 0.48-0.09 0.359-0.211-0.121-0.102-0.293-0.11-0.511-0.032-0.18 0.083-0.243 0.141-0.18 0.18 0.039 0.063 0.152 0.082 0.332 0.063z" inkscape:connector-curvature="0"/>
      <path id="path338" style="fill-rule:evenodd;fill:#ffffff" d="m13.41 6.332c0.32 0.199 0.27 0.039-0.152-0.481-0.418-0.5-0.68-0.711-0.778-0.633-0.101 0.082-0.011 0.262 0.27 0.543 0.219 0.239 0.441 0.43 0.66 0.571z" inkscape:connector-curvature="0"/>
      <path id="path340" style="fill-rule:evenodd;fill:#ffffff" d="m21.629 9.66c0.262 0.121 0.25 0.051-0.027-0.211-0.422-0.379-0.711-0.641-0.872-0.781-0.199-0.2-0.351-0.45-0.453-0.75-0.117-0.379-0.187-0.579-0.207-0.598-0.121-0.242-0.152-0.051-0.09 0.57 0.02 0.278 0.258 0.629 0.719 1.051 0.383 0.379 0.692 0.617 0.93 0.719z" inkscape:connector-curvature="0"/>
      <path id="path342" style="fill-rule:evenodd;fill:#ffffff" d="m24.66 7.14c0.02-0.078-0.09-0.07-0.332 0.032-0.316 0.136-0.57 0.218-0.75 0.238-0.98 0.058-1.578 0.172-1.801 0.332-0.078 0.058-0.039 0.078 0.121 0.058 0.301-0.058 0.551-0.082 0.75-0.058 0.422 0.019 0.86-0.051 1.321-0.211 0.441-0.141 0.672-0.27 0.691-0.391z" inkscape:connector-curvature="0"/>
      <path id="path344" style="fill-rule:evenodd;fill:#ffffff" d="m23.91 5.582c-0.219 0-0.281 0.07-0.18 0.207 0.098 0.16 0.258 0.242 0.481 0.242 0.699-0.02 0.898-0.102 0.598-0.242-0.278-0.137-0.579-0.207-0.899-0.207z" inkscape:connector-curvature="0"/>
      <path id="path346" style="fill-rule:evenodd;fill:#efdfa1" d="m6.871 9.152c0.418-0.02 0.449-0.113 0.09-0.273-0.34-0.18-0.582-0.188-0.723-0.028-0.238 0.238-0.027 0.34 0.633 0.301z" inkscape:connector-curvature="0"/>
      <path id="path348" style="fill-rule:evenodd;fill:#efdfa1" d="m4.051 7.8c0.32 0 0.59-0.058 0.808-0.179 0.203-0.121 0.27-0.223 0.211-0.301-0.039-0.082-0.258-0.141-0.66-0.18-0.398-0.043-0.699-0.031-0.898 0.028-0.219 0.043-0.262 0.16-0.121 0.363 0.121 0.18 0.339 0.269 0.66 0.269z" inkscape:connector-curvature="0"/>
      <path id="path350" style="fill-rule:evenodd;fill:#efdfa1" d="m9.27 8.281c0.382 0.019 0.531-0.063 0.453-0.242-0.102-0.137-0.293-0.239-0.571-0.297-0.3-0.121-0.523-0.203-0.66-0.242-0.222-0.082-0.433-0.09-0.633-0.032-0.218 0.082-0.129 0.231 0.27 0.454 0.402 0.218 0.781 0.339 1.141 0.359z" inkscape:connector-curvature="0"/>
      <path id="path352" style="fill-rule:evenodd;fill:#ffffff" d="m11.25 7.769c0.301-0.359 0.34-0.508 0.121-0.449-0.242 0.059-0.43 0.191-0.57 0.391-0.121 0.16-0.133 0.269-0.031 0.328 0.121 0.062 0.281-0.028 0.48-0.27z" inkscape:connector-curvature="0"/>
      <path id="path354" style="fill-rule:evenodd;fill:#ffffff" d="m9.238 6.48c0.641-0.16 0.981-0.281 1.024-0.359 0.039-0.039-0.114-0.071-0.453-0.09-0.278-0.039-0.598 0.019-0.961 0.18-0.36 0.14-0.586 0.289-0.688 0.449-0.058 0.14 0.008 0.172 0.211 0.09 0.539-0.18 0.828-0.27 0.867-0.27z" inkscape:connector-curvature="0"/>
      <path id="path356" style="fill-rule:evenodd;fill:#ffffff" d="m12.328 7.832c0.223 0 0.293-0.102 0.211-0.301-0.098-0.18-0.25-0.231-0.449-0.152-0.199 0.082-0.262 0.179-0.18 0.3 0.078 0.102 0.219 0.153 0.418 0.153z" inkscape:connector-curvature="0"/>
      <path id="path358" style="fill-rule:evenodd;fill:#ffffff" d="m14.309 11.55c0.539-0.082 0.793-0.179 0.75-0.3-0.02-0.118-0.161-0.18-0.418-0.18-0.219 0-0.481 0.031-0.782 0.09-0.339 0.058-0.539 0.129-0.597 0.211-0.102 0.097-0.043 0.168 0.179 0.211 0.239 0.039 0.528 0.027 0.868-0.032z" inkscape:connector-curvature="0"/>
      <path id="path360" style="fill-rule:evenodd;fill:#efdfa1" d="m17.191 10.558c1.118 0 1.438-0.058 0.957-0.179-0.617-0.161-1.027-0.231-1.226-0.211-0.223 0.019-0.293 0.089-0.215 0.211 0.102 0.121 0.262 0.179 0.484 0.179z" inkscape:connector-curvature="0"/>
      <path id="path362" style="fill-rule:evenodd;fill:#ffffff" d="m17.789 9.269c0.402 0.16 0.5 0.153 0.301-0.027-0.199-0.16-0.461-0.32-0.781-0.481-0.258-0.121-0.668-0.199-1.231-0.242-0.5-0.039-0.871-0.039-1.109 0-0.18 0.02-0.071 0.09 0.332 0.211 0.398 0.102 0.758 0.149 1.078 0.149 0.281 0 0.531 0.043 0.75 0.121 0.121 0.039 0.34 0.129 0.66 0.269z" inkscape:connector-curvature="0"/>
      <path id="path364" style="fill-rule:evenodd;fill:#efdfa1" d="m18.121 4.621c0.098 0 0.199-0.082 0.301-0.242 0.078-0.161 0.027-0.27-0.152-0.329-0.2-0.039-0.411-0.019-0.629 0.059-0.219 0.102-0.364 0.242-0.422 0.422-0.059 0.117-0.02 0.18 0.121 0.18 0.441-0.059 0.699-0.09 0.781-0.09z" inkscape:connector-curvature="0"/>
      <path id="path366" style="fill-rule:evenodd;fill:#efdfa1" d="m15.48 4.8c0.34 0.2 0.309-0.058-0.089-0.781-0.082-0.14-0.262-0.219-0.539-0.238-0.262-0.02-0.461 0.039-0.602 0.18-0.098 0.101 0 0.23 0.301 0.39 0.199 0.078 0.508 0.231 0.929 0.449z" inkscape:connector-curvature="0"/>
      <path id="path368" style="fill-rule:evenodd;fill:#ffffff" d="m7.262 5.281c0.34-0.199 0.328-0.281-0.032-0.242-0.359 0.043-0.601 0.14-0.718 0.3-0.121 0.141-0.102 0.211 0.058 0.211 0.16-0.019 0.391-0.109 0.692-0.269z" inkscape:connector-curvature="0"/>
      <path id="path370" style="fill-rule:evenodd;fill:#ffffff" d="m8.879 5.519c0.281 0.059 0.273-0.051-0.027-0.328-0.282-0.262-0.532-0.441-0.75-0.543-0.18-0.059-0.153 0.063 0.089 0.359 0.239 0.301 0.469 0.473 0.688 0.512z" inkscape:connector-curvature="0"/>
      <path id="path372" style="fill-rule:evenodd;fill:#ffffff" d="m22.23 10.41c0.879-0.258 1.399-0.649 1.559-1.168-0.16 0.18-0.551 0.398-1.168 0.66-0.66 0.258-1 0.398-1.019 0.418-0.102 0.059-0.071 0.098 0.089 0.121 0.161 0.039 0.34 0.027 0.539-0.031z" inkscape:connector-curvature="0"/>
      <path id="path374" style="fill-rule:evenodd;fill:#efdfa1" d="m19.172 8.699c0.558-0.137 0.668-0.27 0.328-0.391-0.32-0.136-0.66-0.179-1.02-0.117-0.281 0.059-0.3 0.168-0.058 0.328 0.258 0.18 0.508 0.242 0.75 0.18z" inkscape:connector-curvature="0"/>
      <path id="path376" style="fill-rule:evenodd;fill:#ffffff" d="m12.18 9.57c0.261 0.039 0.371-0.051 0.332-0.27-0.02-0.218-0.133-0.312-0.332-0.269-0.18 0.019-0.27 0.109-0.27 0.269 0 0.141 0.09 0.231 0.27 0.27z" inkscape:connector-curvature="0"/>
      <path id="path378" style="fill-rule:evenodd;fill:#ffffff" d="m10.922 11.879c0.18 0.062 0.207 0.011 0.086-0.149-0.117-0.141-0.289-0.269-0.508-0.391-0.539-0.32-0.961-0.449-1.262-0.39-0.16 0.019-0.14 0.082 0.063 0.183 0.179 0.079 0.367 0.129 0.57 0.149 0.117 0 0.27 0.082 0.449 0.238 0.2 0.18 0.399 0.301 0.602 0.36z" inkscape:connector-curvature="0"/>
      <path id="path380" style="fill-rule:evenodd;fill:#ffffff" d="m27.152 8.371h0.868c0.042-0.102 0.058-0.25 0.058-0.453 0-1.457-1.367-2.7-4.109-3.719-2.739-1.02-6.047-1.527-9.93-1.527-3.879 0-7.191 0.507-9.93 1.527-2.738 1.019-4.109 2.262-4.109 3.719l0.059 0.453h1.019v-0.242c0-1.297 1.274-2.399 3.813-3.297 2.539-0.922 5.609-1.383 9.211-1.383 3.621 0 6.699 0.461 9.238 1.383 2.543 0.898 3.812 2 3.812 3.297v0.242z" inkscape:connector-curvature="0"/>
      <path id="path382" style="fill-rule:evenodd;fill:#b54624" d="m7.449 12.039c-0.203-0.075-0.359-0.2-0.476-0.375l0.953 0.113c-0.184 0.113-0.34 0.203-0.477 0.262zm1.11-1.2c0.019-0.015 0.441-0.199 1.265-0.55 0.676-0.289 0.985-0.5 0.918-0.641-0.082-0.148-0.539-0.266-1.363-0.34-0.758-0.031-1.285-0.078-1.582-0.136-0.508-0.11-0.887-0.422-1.141-0.938-0.043-0.094-0.051-0.367-0.031-0.824 0.02-0.348-0.098-0.61-0.352-0.778-0.589-0.382-0.886-0.226-0.886 0.457 0 0.137 0.172 0.481 0.508 1.028 0.167 0.262-0.051 0.558-0.665 0.894-0.718 0.243-1.226 0.45-1.523 0.618-0.547 0.316-0.359 0.621 0.57 0.914 0.215 0.058 0.743-0.024 1.586-0.254 0.719-0.196 1.184-0.157 1.395 0.117-0.192 0.504-0.328 0.922-0.414 1.258-0.114 0.492 0.086 0.617 0.601 0.375 0.063 0.023 0.125 0.043 0.192 0.058 0.297 0.059 0.593 0.032 0.886-0.093-0.211-0.563-0.199-0.95 0.036-1.165z" inkscape:connector-curvature="0"/>
      <path id="path384" style="fill-rule:evenodd;fill:#b54624" d="m17.59 12.347-0.731 0.321c0.438-0.207 0.278-0.653-0.472-1.325-0.742-0.656-0.657-1.113 0.25-1.371-0.317-0.472-0.938-0.59-1.867-0.343-1.395 0.378-2.145 0.57-2.25 0.57-0.172 0.519 0.05 0.851 0.664 1.008 0.339 0.09 0.898 0.175 1.679 0.25-0.254 0.683 0.043 1.187 0.887 1.507 0.867 0.336 1.48 0.129 1.84-0.617z" inkscape:connector-curvature="0"/>
      <path id="path386" style="fill-rule:evenodd;fill:#b54624" d="m19.332 10.886c-0.105 0.5 0.191 0.77 0.887 0.797 0.527 0.016 1.035-0.086 1.523-0.304 0.41 0.117 0.781 0.234 1.11 0.351 0.21 0.031 0.496-0.129 0.855-0.48 0.395-0.688 0.574-0.981 0.539-0.879 0.043-0.117 0.184-0.211 0.41-0.285 0.125-0.047 0.125-0.192 0-0.438-0.254-0.516-0.621-0.637-1.109-0.363-0.508 0.441-0.856 0.715-1.047 0.824-0.422 0.242-0.918 0.441-1.488 0.594-0.614 0.152-1.172 0.211-1.68 0.183z" inkscape:connector-curvature="0"/>
      <path id="path388" style="fill-rule:evenodd;fill:#b54624" d="m14.422 7.433c-0.91 0.063-1.449 0.137-1.617 0.231-0.426 0.258-0.285 0.508 0.41 0.754 0.594 0.195 1.152 0.289 1.68 0.273 0.253 0 0.742-0.09 1.457-0.273 0.464-0.11 0.878-0.055 1.238 0.16 0.379 0.457 0.652 0.754 0.824 0.89 0.231 0.196 0.684 0.153 1.359-0.125l-0.601 0.262c0.887-0.199 1.215-0.465 0.984-0.801-0.402-0.609-0.582-0.992-0.539-1.144 0.043-0.153 0.41-0.387 1.11-0.707 0.57-0.258 0.718-0.578 0.445-0.961-0.215-0.336-0.613-0.387-1.207-0.16-0.676 0.336-1.149 0.527-1.426 0.574-0.824 0-1.414 0.016-1.773 0.043-0.633 0.062-0.793 0.351-0.477 0.871-0.105 0.016-0.727 0.051-1.867 0.113z" inkscape:connector-curvature="0"/>
      <path id="path390" style="fill-rule:evenodd;fill:#b54624" d="m23.77 8.578c0.296-0.063 0.515-0.184 0.664-0.367l0.019-0.024-0.683 0.391zm0.695-0.426c0.101-0.168 0.121-0.363 0.066-0.582-0.551-0.031-1.109 0.008-1.679 0.113-0.786 0.168-1.122 0.43-1.016 0.778 0.105 0.351 0.516 0.421 1.234 0.207 0.364-0.114 0.828-0.286 1.395-0.516z" inkscape:connector-curvature="0"/>
      <path id="path392" style="fill-rule:evenodd;fill:#b54624" d="m20.902 4.738c0.043-0.066 0.09-0.141 0.141-0.231-0.398-0.335-1.148-0.562-2.25-0.683-1.016-0.11-1.828-0.094-2.438 0.047 0.145 0.074 0.528 0.363 1.141 0.867 0.442 0.367 0.844 0.578 1.203 0.641 0.508 0.089 0.992 0.015 1.457-0.231 0.188-0.101 0.434-0.238 0.746-0.41z" inkscape:connector-curvature="0"/>
      <path id="path394" style="fill-rule:evenodd;fill:#b54624" d="m8.43 6.109c0.613-0.121 1.121-0.082 1.523 0.113 0.043 0.016 0.359 0.352 0.949 1.008 0.34 0.379 0.782 0.426 1.332 0.137 0.379-0.231 0.379-0.488 0-0.778-0.23-0.152-0.625-0.406-1.172-0.753 0.297-0.504 0.508-0.793 0.633-0.872 0.168-0.089 0.602-0.144 1.301-0.16 1.078-0.027 1.656-0.05 1.742-0.066 0.614-0.106 0.879-0.426 0.793-0.961-2.597-0.031-4.554-0.031-5.863 0-0.824 0.031-1.637 0.176-2.441 0.434-1.133 0.367-1.844 0.593-2.137 0.687 0.5-0.137 0.883-0.019 1.156 0.344 0.422 0.547 0.719 0.851 0.887 0.914 0.23 0.09 0.664 0.074 1.297-0.047z" inkscape:connector-curvature="0"/>
      <path id="path396" style="fill-rule:evenodd;fill:#782e18" d="m11.25 5.949h-0.156c0.211 0.457 0.621 0.648 1.234 0.57 0.168-0.531-0.031-0.922-0.601-1.164 0.062-0.031 0.16-0.121 0.285-0.277 0.148-0.137 0.261-0.227 0.347-0.274-0.336-0.242-0.769-0.16-1.297 0.25-0.531 0.414-0.464 0.711 0.188 0.895z" inkscape:connector-curvature="0"/>
      <path id="path398" style="fill-rule:evenodd;fill:#782e18" d="m8.082 5.261-0.156-0.113c0.125-0.016 0.386-0.121 0.793-0.32-0.34-0.336-0.625-0.403-0.856-0.207-0.234 0.199-0.16 0.414 0.219 0.64z" inkscape:connector-curvature="0"/>
      <path id="path400" style="fill-rule:evenodd;fill:#782e18" d="m17.59 7.777h-0.031c0.062-0.258 0.402-0.586 1.011-0.984 0.551-0.332 1.047-0.571 1.492-0.707-0.402-0.168-0.886-0.161-1.457 0.023-0.718 0.211-1.214 0.313-1.492 0.297 0.086-0.578-0.051-0.809-0.41-0.688-0.359 0.11-0.633 0.352-0.824 0.731-0.149 0.504-0.266 0.816-0.348 0.937-0.105 0.153-0.531 0.293-1.269 0.414 0.148 0.352 0.633 0.457 1.461 0.321 0.441-0.094 1.062-0.207 1.867-0.344z" inkscape:connector-curvature="0"/>
      <path id="path402" style="fill-rule:evenodd;fill:#782e18" d="m19.652 8.347-0.636 0.117c0.972-0.031 1.207-0.23 0.699-0.593-0.149-0.125-0.285-0.157-0.414-0.094-0.168 0.078-0.211 0.266-0.125 0.57 0.105 0.016 0.262 0.016 0.476 0z" inkscape:connector-curvature="0"/>
      <path id="path404" style="fill-rule:evenodd;fill:#782e18" d="m20.664 10.703c-0.316 0.105-0.551 0.242-0.699 0.41 0.359 0.121 0.824 0.144 1.394 0.07 0.219-0.031 0.493-0.066 0.825-0.113 0.011-0.055 0.043-0.148 0.097-0.277 0.063-0.153 0.082-0.274 0.063-0.364 0.633-0.14 1.086-0.445 1.363-0.918 0.25-0.484-0.055-0.562-0.918-0.226-0.234 0.078-0.457 0.242-0.668 0.504-0.254 0.304-0.453 0.5-0.601 0.593-0.149 0.09-0.434 0.2-0.856 0.321z" inkscape:connector-curvature="0"/>
      <path id="path406" style="fill-rule:evenodd;fill:#782e18" d="m11.918 10.578c0.144 0.051 0.348 0.07 0.602 0.054l-0.239-0.031c0.043-0.015 0.082-0.031 0.11-0.058 0.129-0.106 0.105-0.297-0.063-0.571-0.57 0.016-0.801 0.137-0.695 0.364 0.031 0.082 0.086 0.148 0.172 0.195l-0.078-0.012c0.066 0.028 0.128 0.047 0.191 0.059z" inkscape:connector-curvature="0"/>
      <path id="path408" style="fill-rule:evenodd;fill:#782e18" d="m9.762 10.382c0.379-0.168 1.066-0.425 2.062-0.777-0.445-0.168-1.07-0.32-1.871-0.457-0.867-0.168-1.5-0.312-1.902-0.434-0.571-0.183-1.024-0.656-1.363-1.417-0.336-0.731-0.665-1.133-0.981-1.211-0.066 0.988 0.063 1.738 0.379 2.242 0.402 0.609 1.16 1.011 2.281 1.211-0.551 0.394-0.855 0.875-0.918 1.437 0.129 0 0.309-0.027 0.539-0.09 0.114 0.297 0.2 0.516 0.254 0.664 0.36-0.503 0.863-0.894 1.52-1.168z" inkscape:connector-curvature="0"/>
      <path id="path410" style="fill-rule:evenodd;fill:#782e18" d="m10.98 12.336-0.046 0.011c0.57-0.043 0.855-0.242 0.855-0.593-0.019-0.336-0.293-0.434-0.824-0.297-0.508 0.136-0.664 0.359-0.473 0.664 0.106 0.164 0.27 0.234 0.488 0.215z" inkscape:connector-curvature="0"/>
      <path id="path412" style="fill-rule:evenodd;fill:#782e18" d="m22.977 7.433-0.317 0.903c0.039-0.082 0.262-0.305 0.668-0.672 0.274-0.246 0.293-0.465 0.063-0.664-0.192-0.2-0.559-0.231-1.11-0.09-0.593 0.195-0.992 0.332-1.207 0.41 0.086 0.441 0.371 0.672 0.856 0.684 0.465 0.015 0.816-0.172 1.047-0.571z" inkscape:connector-curvature="0"/>
      <path id="path414" style="fill-rule:evenodd;fill:#782e18" d="m12.836 9.148-0.793 0.113c0.277 0.246 0.613 0.313 1.016 0.207 0.402-0.105 0.515-0.312 0.347-0.617-0.105-0.183-0.433-0.351-0.98-0.504-0.383-0.105-0.774-0.175-1.172-0.203-0.086 0.336 0.039 0.602 0.379 0.801 0.336 0.18 0.738 0.25 1.203 0.203z" inkscape:connector-curvature="0"/>
      <path id="path416" style="fill-rule:evenodd;fill:#782e18" d="m17.605 10.863c0.481-0.09 0.833-0.129 1.063-0.117 0-0.332-0.211-0.547-0.633-0.637-0.426-0.094-0.836-0.055-1.238 0.113 0.055 0.387 0.324 0.598 0.808 0.641z" inkscape:connector-curvature="0"/>
      <path id="path418" style="fill-rule:evenodd;fill:#782e18" d="m15.371 5.718h-0.238c0.265-0.023 0.523-0.093 0.777-0.203 0.445-0.199 0.625-0.465 0.539-0.801-1.14 0.059-1.984 0.29-2.535 0.684 0.148 0.215 0.348 0.344 0.602 0.391 0.273 0.058 0.558 0.039 0.855-0.071z" inkscape:connector-curvature="0"/>
      <path id="path420" style="fill-rule:evenodd;fill:#782e18" d="m8.398 7.089-0.316 0.118c0.867 0.105 1.172-0.063 0.918-0.504-0.254-0.426-0.719-0.52-1.395-0.274-0.082 0.41 0.18 0.633 0.793 0.66z" inkscape:connector-curvature="0"/>
      <path id="path422" style="fill-rule:evenodd;fill:#782e18" d="m17.035 12.793c-0.027 0.007-0.055 0.007-0.078 0.011h0.207c-0.043 0-0.086-0.004-0.129-0.011 0.414-0.039 1.219-0.075 2.426-0.102 0.019-0.383-0.445-0.648-1.395-0.801-1.183-0.195-1.921-0.41-2.218-0.64-0.125 0.414-0.043 0.777 0.254 1.097 0.226 0.258 0.535 0.407 0.933 0.446z" inkscape:connector-curvature="0"/>
      <path id="path424" style="fill-rule:evenodd;fill:#90a701" d="m8.559 12.121-0.129-0.047c-0.063-0.031-0.075-0.082-0.032-0.16 0.403-0.032 0.973 0 1.711 0.09 0.129-0.457 0.012-0.907-0.347-1.348-0.7 0.199-1.164 0.351-1.395 0.457-0.379 0.168-0.422 0.504-0.129 1.004h0.321v0.004z" inkscape:connector-curvature="0"/>
      <path id="path426" style="fill-rule:evenodd;fill:#90a701" d="m13.152 13.375-0.316-0.227c0.379-0.016 0.656-0.152 0.824-0.414 0.125-0.227 0.16-0.5 0.094-0.82-0.781-0.078-1.266 0.097-1.457 0.523-0.211 0.43 0.074 0.742 0.855 0.938z" inkscape:connector-curvature="0"/>
      <path id="path428" style="fill-rule:evenodd;fill:#90a701" d="m18.906 12.015c0.266 0.129 0.555 0.164 0.871 0.106 0.02-0.52-0.16-0.84-0.539-0.961-0.297-0.106-0.613-0.071-0.949 0.113-0.34 0.184-0.445 0.359-0.32 0.527 0.14 0.133 0.453 0.207 0.937 0.215z" inkscape:connector-curvature="0"/>
      <path id="path430" style="fill-rule:evenodd;fill:#90a701" d="m20.602 9.718c-0.172-0.062-0.332-0.179-0.477-0.351-0.094 0.043-0.199 0.086-0.316 0.125l0.793 0.226zm-0.477-0.351c0.461-0.211 0.684-0.473 0.664-0.789-0.019-0.383-0.398-0.367-1.141 0.043 0.211 0.367 0.34 0.574 0.383 0.617 0.031 0.047 0.063 0.09 0.094 0.129z" inkscape:connector-curvature="0"/>
      <path id="path432" style="fill-rule:evenodd;fill:#90a701" d="m18.938 7.054c0.05-0.011 0.097-0.031 0.14-0.054 0.211-0.102 0.34-0.278 0.383-0.528 0.082-0.472-0.273-0.578-1.078-0.32-0.656 0.23-0.805 0.461-0.445 0.687 0.175 0.122 0.378 0.192 0.601 0.215 0.125 0.016 0.258 0.016 0.399 0z" inkscape:connector-curvature="0"/>
      <path id="path434" style="fill-rule:evenodd;fill:#90a701" d="m12.836 5.605-0.477-0.226c0.7 0.105 1.09-0.04 1.172-0.438 0.086-0.379-0.242-0.578-0.98-0.594-0.867 0-1.16 0.231-0.887 0.688 0.254 0.457 0.645 0.648 1.172 0.57z" inkscape:connector-curvature="0"/>
      <path id="path436" style="fill-rule:evenodd;fill:#90a701" d="m6.039 7.308c-0.019-0.023-0.043-0.043-0.066-0.07-0.032-0.008-0.071-0.02-0.11-0.031l0.176 0.101zm-0.062-0.07c0.539 0.172 0.82-0.008 0.839-0.535 0.02-0.563-0.254-0.817-0.824-0.754-0.531 0.058-0.644 0.344-0.351 0.844 0.109 0.175 0.218 0.324 0.336 0.445z" inkscape:connector-curvature="0"/>
      <path id="path438" style="fill-rule:evenodd;fill:#90a701" d="m4.121 9.605c0.422 0.078 0.836 0.008 1.234-0.207 0.403-0.242 0.36-0.473-0.125-0.684-0.464-0.199-0.824-0.128-1.078 0.204-0.254 0.32-0.265 0.617-0.031 0.894-0.043-0.094-0.043-0.16 0-0.207z" inkscape:connector-curvature="0"/>
      <path id="path440" style="fill-rule:evenodd;fill:#90a701" d="m23.453 10.863h-0.316c0.633 0.09 1.109-0.063 1.425-0.457l-0.191-0.664c-0.148 0.047-0.242 0.078-0.285 0.094-0.043 0.027-0.106 0.105-0.188 0.226-0.191-0.031-0.445-0.023-0.761 0.024-0.129 0.32-0.024 0.578 0.316 0.777z" inkscape:connector-curvature="0"/>
      <path id="path442" style="fill-rule:evenodd;fill:#8f7f59" d="m21.465 10.957c0.246 0 0.289-0.047 0.121-0.145-0.164-0.07-0.297-0.137-0.391-0.207-0.261-0.223-0.582-0.402-0.953-0.539-0.953-0.262-1.762-0.496-2.422-0.703-0.859-0.277-1.797-0.836-2.82-1.68-0.758-0.648-1.605-1.195-2.547-1.636-0.262-0.125-0.578-0.344-0.953-0.661l-0.477-0.418-0.308 0.602v1.305c-0.442 0.234-0.836 0.484-1.184 0.746-0.687 0.523-0.785 0.851-0.289 0.976 0.789 0.192 4.863 0.981 12.223 2.36z" inkscape:connector-curvature="0"/>
      <path id="path444" style="fill-rule:evenodd;fill:#94845d" d="m5.641 6.566c3.48-0.539 5.23-0.871 5.261-0.992l0.145-0.621-1.594 0.039c-0.539 0.027-1.555 0.176-3.047 0.437-0.371 0.055-0.918 0.184-1.636 0.391-0.665 0.18-1.075 0.312-1.243 0.394l-0.394 0.227c0.883 0.086 1.719 0.125 2.508 0.125z" inkscape:connector-curvature="0"/>
      <path id="path446" style="fill-rule:evenodd;fill:#695322" d="m17.32 10.461c2.375 0.343 3.645 0.515 3.813 0.515 0.262 0 0.426-0.012 0.496-0.039s0.016-0.055-0.164-0.086c-0.141-0.027-0.235-0.066-0.293-0.121-0.082-0.07-0.137-0.113-0.164-0.125-0.539-0.305-1.172-0.523-1.906-0.664-0.872-0.191-1.809-0.531-2.817-1.016-0.375-0.179-0.879-0.523-1.512-1.035-0.675-0.551-1.207-0.929-1.593-1.14-0.512-0.274-1.032-0.625-1.555-1.055l-0.645-0.539c-0.496-0.094-1.179-0.09-2.046 0.019-0.86 0.114-1.481 0.196-1.868 0.25-0.675 0.114-1.199 0.223-1.574 0.332l-2.441 0.704c0.578 0.414 1.019 0.746 1.324 0.996 1.258 0.386 2.563 0.781 3.914 1.179 2.707 0.801 4.297 1.223 4.766 1.266 0.386 0.027 1.808 0.215 4.265 0.559z" inkscape:connector-curvature="0"/>
      <path id="path448" style="fill-rule:evenodd;fill:#f27922" d="m17.094 13.504c1.008-0.274 1.871-0.598 2.586-0.973 0.816-0.426 1.336-0.817 1.554-1.16-0.109-0.344-0.457-0.629-1.035-0.848-0.234-0.098-0.738-0.25-1.511-0.457-0.774-0.207-1.43-0.414-1.969-0.621-0.567-0.219-1.223-0.613-1.965-1.18-0.832-0.636-1.313-0.988-1.453-1.054-0.317-0.168-0.84-0.52-1.574-1.059-0.36-0.277-0.688-0.531-0.993-0.766l-2.879 0.207c-0.32 0.028-1.183 0.2-2.589 0.516l-2.032 0.477c-0.316 0.168-0.504 0.375-0.558 0.625-0.039 0.136-0.004 0.425 0.105 0.867l0.082 0.187 0.5 0.434c0.426 0.316 1.067 0.855 1.926 1.617 0.66 0.566 1.531 1.168 2.609 1.801 1.102 0.637 1.989 1.051 2.649 1.242 0.883 0.262 2.004 0.465 3.355 0.602 0.942 0.015 2.004-0.137 3.192-0.457z" inkscape:connector-curvature="0"/>
      <g id="g450">
        <g id="g466" mask="url(#mask458)">
          <g id="g478">
            <g id="g480" clip-path="url(#clipPath470)">
              <g id="g482" transform="translate(0 -.19176)">
                <g id="g486">
                  <g id="g488" clip-path="url(#clipPath474)">
                    <g id="g490">
                      <path id="path492" style="fill-rule:evenodd;fill:#ff9947" d="m13.844 13.961c1.285 0 2.332-0.102 3.148-0.309-0.097-0.043-0.215-0.062-0.351-0.062-0.141 0-0.379 0.012-0.727 0.039-0.332 0.027-0.613 0.043-0.848 0.043-0.746 0-1.539-0.106-2.382-0.313-0.899-0.218-1.7-0.543-2.403-0.972-0.496-0.262-0.843-0.449-1.035-0.559-0.316-0.18-0.574-0.406-0.766-0.683-0.179-0.25-0.476-0.532-0.89-0.848-0.5-0.375-0.824-0.637-0.973-0.789-0.265-0.278-0.422-0.426-0.476-0.453-0.086 0.011-0.18 0.019-0.293 0.019-0.317 0-0.918-0.113-1.801-0.332-0.235-0.054-0.277-0.008-0.125 0.145 0.262 0.222 0.441 0.379 0.539 0.476 0.441 0.387 0.766 0.676 0.973 0.871 0.152 0.028 0.25 0.09 0.293 0.184 0.66 0.566 1.503 1.141 2.523 1.723 1.023 0.593 1.859 0.984 2.508 1.179 0.883 0.262 1.914 0.477 3.086 0.641z" inkscape:connector-curvature="0"/>
                    </g>
                  </g>
                </g>
              </g>
            </g>
          </g>
        </g>
      </g>
      <path id="path494" style="fill-rule:evenodd;fill:#ff9b4a" d="m14.258 13.648 0.496-0.434c0.359-0.343 0.621-0.656 0.785-0.933 0.387-0.66 0.512-1.426 0.375-2.297-0.086-0.539-0.187-0.559-0.312-0.062 0.086 0.015 0.152 0.078 0.207 0.187 0.113 0.207 0.089 0.523-0.063 0.953-0.219 0.633-0.687 1.242-1.406 1.82l-0.996 0.665c-0.344 0.027-0.696 0.039-1.055 0.039-0.414 0-0.766-0.02-1.055-0.059 0.551 0.121 1.063 0.219 1.532 0.289 0.648 0.012 1.144-0.043 1.492-0.168z" inkscape:connector-curvature="0"/>
      <path id="path496" style="fill-rule:evenodd;fill:#ff9b4a" d="m19.93 11.101c0.304 0.262 0.429 0.5 0.375 0.707-0.043 0.164-0.235 0.399-0.582 0.703l0.789-0.476c0.039-0.317-0.035-0.61-0.231-0.871l-0.433-0.434c-0.153-0.113-0.243-0.141-0.27-0.086-0.027 0.059 0.09 0.211 0.352 0.457z" inkscape:connector-curvature="0"/>
      <path id="path498" style="fill-rule:evenodd;fill:#ff9b4a" d="m12.309 13.238 0.539-0.418c0.414-0.316 0.718-0.598 0.91-0.848 0.554-0.703 0.914-1.476 1.078-2.32 0.109-0.512 0.051-0.574-0.188-0.184 0.016 0.149-0.027 0.36-0.121 0.621-0.179 0.497-0.527 0.993-1.035 1.489-0.418 0.402-1.012 0.738-1.785 1.015l-1.035 0.313-0.371-0.043c-0.457-0.055-0.953-0.145-1.492-0.27l0.664 0.332c1.035 0.164 1.98 0.27 2.836 0.313z" inkscape:connector-curvature="0"/>
      <path id="path500" style="fill-rule:evenodd;fill:#ff9b4a" d="m11.293 6.711-0.164-0.27c-0.016 0.227-0.172 0.551-0.477 0.977-0.347 0.496-1.05 0.992-2.113 1.488l-1.492 0.621c-1.063-0.012-1.961-0.164-2.692-0.453-0.25-0.098-0.554-0.25-0.914-0.457 0.114 0.125 0.332 0.332 0.664 0.621 1.079 0.457 2.247 0.738 3.5 0.851l0.79-0.375c0.605-0.316 1.109-0.628 1.511-0.933 0.621-0.496 1.086-1.188 1.387-2.07z" inkscape:connector-curvature="0"/>
      <path id="path502" style="fill-rule:evenodd;fill:#ff9b4a" d="m10.672 9.941c0.387-0.262 0.773-0.633 1.16-1.117 0.469-0.578 0.836-1.192 1.098-1.844l-0.66-0.433c-0.016 0.039 0.019 0.171 0.101 0.394 0.082 0.207 0.109 0.344 0.082 0.414-0.398 1.063-1.297 1.961-2.691 2.692l-1.969 0.765c-0.523-0.055-1.082-0.152-1.676-0.289-0.316-0.07-0.613-0.16-0.89-0.269l0.062 0.062 0.703 0.539c0.883 0.234 1.754 0.371 2.61 0.414l2.07-1.328z" inkscape:connector-curvature="0"/>
      <path id="path504" style="fill-rule:evenodd;fill:#ff9b4a" d="m10.879 11.207-1.758 0.64c-0.707-0.07-1.418-0.172-2.137-0.308l0.77 0.476c0.785 0.121 1.566 0.184 2.34 0.184l0.91-0.453c0.664-0.375 1.16-0.711 1.492-1.016 0.84-0.773 1.387-1.652 1.637-2.633l0.058-0.265-0.246-0.188c-0.043 0.055-0.097 0.254-0.168 0.602-0.066 0.371-0.179 0.687-0.332 0.953-0.437 0.742-1.293 1.414-2.566 2.008z" inkscape:connector-curvature="0"/>
      <path id="path506" style="fill-rule:evenodd;fill:#ff9b4a" d="m18.957 11.929c-0.07 0.348-0.496 0.809-1.285 1.387l0.851-0.266c0.372-0.359 0.586-0.734 0.641-1.121 0.055-0.3 0.016-0.566-0.125-0.785-0.094-0.18-0.148-0.25-0.164-0.207l0.02 0.125c0.167 0 0.187 0.289 0.062 0.867z" inkscape:connector-curvature="0"/>
      <path id="path508" style="fill-rule:evenodd;fill:#ff9b4a" d="m16.035 13.754c0.844-0.582 1.34-1 1.492-1.266 0.125-0.246 0.196-0.578 0.207-0.992 0-0.36-0.027-0.602-0.082-0.727-0.019-0.043-0.05-0.082-0.082-0.125-0.019-0.137-0.058-0.219-0.125-0.246l-0.226 0.039c0.152 0.059 0.269 0.129 0.351 0.207 0.012 0.129 0.004 0.305-0.023 0.52-0.094 0.718-0.453 1.359-1.074 1.925l-0.891 0.645c-0.277 0.027-0.586 0.074-0.934 0.145l-0.226 0.082c0.621-0.055 1.16-0.125 1.613-0.207z" inkscape:connector-curvature="0"/>
      <path id="path510" style="fill-rule:evenodd;fill:#c25b10" d="m17.984 11.308c0.387 0.055 0.973 0.106 1.758 0.145 0.43 0.043 0.926 0.008 1.492-0.102-0.136-0.344-0.484-0.621-1.035-0.828-0.234-0.098-0.738-0.25-1.511-0.457-0.774-0.207-1.43-0.414-1.969-0.621-0.567-0.219-1.223-0.613-1.965-1.18-0.832-0.633-1.313-0.988-1.453-1.054-0.317-0.168-0.84-0.52-1.574-1.059-0.36-0.273-0.688-0.531-0.993-0.766l-0.64 0.043 0.207 1.078c0.137 0.055 0.633 0.489 1.488 1.305 0.43 0.399 1.008 0.957 1.742 1.676 0.649 0.555 1.332 0.969 2.051 1.242 0.719 0.277 1.52 0.469 2.402 0.578z" inkscape:connector-curvature="0"/>
      <path id="path512" style="fill-rule:evenodd;fill:#d16211" d="m10.609 5.386-2.855 0.188c-0.305 0.027-1.156 0.199-2.551 0.515l-1.984 0.458c-0.168 0.152-0.285 0.343-0.356 0.582-0.054 0.191-0.047 0.441 0.024 0.742l0.082 0.144c0.593 0.332 1.324 0.52 2.195 0.563 1.078 0.039 2.156-0.231 3.231-0.809 0.609-0.316 1.293-0.703 2.05-1.16l0.102-0.434c0.058-0.332 0.086-0.589 0.086-0.769l-0.024-0.02z" inkscape:connector-curvature="0"/>
      <path id="path514" style="fill-rule:evenodd;fill:#ffc17a" d="m16.266 13.648c0.566-0.055 0.937-0.129 1.117-0.226l-0.602 0.042c-0.191 0.028-0.343 0.04-0.453 0.04-0.223 0.027-0.422 0.027-0.601 0-0.153-0.028-0.313-0.04-0.477-0.04-0.332 0-0.602-0.007-0.809-0.023-0.566-0.027-0.964-0.066-1.199-0.125-0.152-0.027-0.332-0.086-0.539-0.184-0.234-0.097-0.441-0.168-0.621-0.207-0.234-0.043-0.469-0.125-0.703-0.25-0.293-0.179-0.539-0.316-0.746-0.414-0.153-0.082-0.313-0.199-0.477-0.351-0.097-0.071-0.25-0.125-0.457-0.168-0.246-0.039-0.426-0.113-0.539-0.227-0.152-0.179-0.308-0.359-0.476-0.539-0.082-0.082-0.387-0.422-0.911-1.015-0.07-0.094-0.117-0.157-0.144-0.184s-0.102-0.078-0.227-0.145l-0.562-0.375c-0.164-0.125-0.391-0.253-0.68-0.394-0.152 0.016-0.23 0.043-0.23 0.086l0.023 0.062 0.184 0.227 1.304 1.242c0.071 0.07 0.231 0.207 0.477 0.414 0.168 0.141 0.277 0.25 0.332 0.332 0.18 0.235 0.473 0.442 0.871 0.621 0.18 0.071 0.344 0.164 0.496 0.289 0.098 0.055 0.215 0.141 0.352 0.25 0.125 0.098 0.41 0.243 0.851 0.434 0.453 0.207 0.774 0.324 0.953 0.352 0.082 0.015 0.391 0.097 0.93 0.25 0.5 0.152 0.856 0.234 1.078 0.25 0.981 0.066 1.809 0.062 2.485-0.024z" inkscape:connector-curvature="0"/>
      <path id="path516" style="fill-rule:evenodd;fill:#f27922" d="m8.91 7.601c-0.867 0.528-1.48 0.828-1.84 0.914-0.609 0.149-1.16 0.207-1.66 0.164-0.91-0.027-1.594-0.132-2.047-0.312-0.293-0.121-0.347-0.09-0.168 0.105 0.36 0.192 0.836 0.344 1.43 0.457 0.758 0.149 1.441 0.145 2.051-0.023 0.594-0.164 1.277-0.442 2.051-0.828 0.578-0.289 1.019-0.539 1.324-0.746 0.429-0.317 0.672-0.739 0.726-1.262 0.039-0.387 0.028-0.617-0.043-0.684l-2.546 0.145-0.622 0.105 0.723-0.043c0.555-0.015 0.981-0.015 1.285 0 0.414 0.028 0.664 0.079 0.746 0.145 0.125 0.109 0.082 0.332-0.125 0.664-0.261 0.414-0.433 0.664-0.515 0.746-0.125 0.109-0.379 0.262-0.77 0.453z" inkscape:connector-curvature="0"/>
      <path id="path518" style="fill-rule:evenodd;fill:#f27922" d="m11.129 7.168c0 0.082 0.008 0.179 0.019 0.289 0.043 0.218 0.114 0.379 0.207 0.476 0.168 0.137 0.403 0.18 0.707 0.125l-0.148-0.539c-0.027-0.14 0.016-0.269 0.125-0.394 0.055-0.071 0.145-0.172 0.27-0.309 0.054-0.113 0.035-0.195-0.063-0.25s-0.191-0.062-0.289-0.019c-0.055 0.027-0.09 0.128-0.102 0.308-0.015 0.25-0.043 0.422-0.085 0.52-0.055 0.121-0.137 0.152-0.247 0.082-0.14-0.125-0.269-0.219-0.394-0.289z" inkscape:connector-curvature="0"/>
      <path id="path520" style="fill-rule:evenodd;fill:#f27922" d="m17.465 11.289c-0.039-0.043-0.09-0.082-0.145-0.125-0.082-0.11-0.129-0.207-0.144-0.289 0-0.055 0.019-0.125 0.062-0.207 0.028-0.055 0.02-0.133-0.019-0.227-0.055-0.125-0.141-0.141-0.25-0.043-0.098 0.098-0.16 0.207-0.188 0.332-0.011 0.109-0.117 0.18-0.308 0.207-0.168 0.027-0.348 0.02-0.539-0.019l0.332 0.226c0.246 0.153 0.418 0.235 0.515 0.25 0.168 0.024 0.395-0.008 0.684-0.105z" inkscape:connector-curvature="0"/>
      <path id="path522" style="fill-rule:evenodd;fill:#f27922" d="m17.219 10.109 0.144-0.25 0.145-0.043c0.097-0.027 0.152-0.055 0.164-0.082 0.027-0.055 0.016-0.102-0.039-0.145-0.055-0.054-0.145-0.07-0.27-0.042-0.109 0.027-0.168 0.132-0.168 0.312l0.024 0.25z" inkscape:connector-curvature="0"/>
      <path id="path524" style="fill-rule:evenodd;fill:#f27922" d="m20.863 11.558c-0.043 0.082 0 0.094 0.125 0.043 0.121-0.058 0.207-0.14 0.246-0.25 0.028-0.14 0-0.254-0.082-0.351-0.109-0.114-0.324-0.235-0.64-0.375-0.289-0.121-0.555-0.219-0.789-0.289l-0.289-0.039 0.519 0.183c0.399 0.125 0.695 0.305 0.887 0.539 0.086 0.11 0.117 0.215 0.105 0.313 0 0.023-0.027 0.101-0.082 0.226z" inkscape:connector-curvature="0"/>
      <path id="path526" style="fill-rule:evenodd;fill:#bd7400" d="m16.348 12.675c0.375-0.152 0.636-0.242 0.789-0.269 0.246-0.039 0.535 0.051 0.867 0.269l0.062-0.082c0.043-0.07 0.071-0.14 0.086-0.207 0.039-0.152-0.113-0.289-0.457-0.414-0.386-0.152-0.836-0.125-1.347 0.082-0.567 0.278-1.036 0.496-1.41 0.664-0.606 0.278-1.247 0.504-1.926 0.684l-1.137 0.289c-0.043 0.012-0.027 0.043 0.039 0.082 0.086 0.055 0.152 0.082 0.211 0.082l1.367-0.308c0.949-0.219 1.57-0.379 1.863-0.477l0.993-0.395z" inkscape:connector-curvature="0"/>
      <path id="path528" style="fill-rule:evenodd;fill:#c7be91" d="m15.77 14.644c0.066-0.012 0.093-0.07 0.082-0.164 0-0.098-0.036-0.203-0.106-0.312-0.055-0.098-0.129-0.164-0.226-0.207l-0.106-0.043c-0.066-0.039-0.137-0.067-0.207-0.082-0.648-0.012-1.137-0.036-1.469-0.063-0.207-0.027-0.316-0.055-0.332-0.082l0.043-0.043-0.351 0.086c-0.059 0.012-0.106 0.047-0.149 0.102l-0.019 0.062h2.05c-0.691 0.137-1.187 0.231-1.492 0.27-0.593 0.082-0.953 0.109-1.078 0.082l0.106 0.105c0.07 0.082 0.129 0.117 0.187 0.102l1.406-0.164 1.098-0.27-0.539 0.188c-0.289 0.179-0.508 0.281-0.66 0.308l-0.332 0.106 0.082 0.062c0.082 0.039 0.168 0.063 0.25 0.063 0.109-0.016 0.308-0.114 0.597-0.289 0.098-0.071 0.34-0.204 0.727-0.395l0.039 0.121 0.168 0.332-0.019 0.086c-0.043 0.067 0.042 0.082 0.25 0.039z" inkscape:connector-curvature="0"/>
      <path id="path530" style="fill-rule:evenodd;fill:#c7be91" d="m17.508 13.672-0.934 0.101h-0.64l1.285-0.516c0.383-0.168 0.578-0.304 0.578-0.414-0.016-0.086-0.137-0.179-0.371-0.293 0 0.141-0.09 0.278-0.27 0.414-0.179 0.125-0.504 0.305-0.976 0.54l-0.496 0.269 0.582-0.496c0.039-0.059 0.074-0.141 0.101-0.25 0.043-0.109 0.051-0.18 0.024-0.207-0.028-0.055-0.161-0.051-0.395 0.019 0.027 0.11 0.008 0.223-0.062 0.333l-0.496 0.621-0.024 0.125 0.188 0.019c0.097-0.027 0.55-0.027 1.367 0 0.261-0.012 0.414-0.039 0.457-0.082l0.082-0.183z" inkscape:connector-curvature="0"/>
      <path id="path532" style="fill-rule:evenodd;fill:#c7be91" d="m16.391 14.355c0.441-0.113 0.73-0.203 0.867-0.269 0.359-0.207 0.629-0.469 0.808-0.786 0.071-0.097 0.079-0.175 0.02-0.23-0.027-0.027-0.102-0.066-0.227-0.125-0.07-0.039-0.101-0.031-0.101 0.023 0.012 0.098 0.012 0.192 0 0.289 0 0.11-0.117 0.25-0.356 0.415-0.289 0.195-0.488 0.332-0.597 0.414-0.18 0.136-0.711 0.296-1.598 0.476-0.469 0.11-1.227 0.035-2.277-0.226-0.301-0.086-0.504-0.196-0.602-0.332l-0.039-0.188c-0.098 0.027-0.172 0.109-0.227 0.25-0.042 0.098-0.031 0.18 0.04 0.246 0.043 0.031 0.144 0.078 0.312 0.149 0.121 0.066 0.359 0.128 0.703 0.183 0.371 0.07 0.711 0.113 1.016 0.125 0.773 0.028 1.277-0.035 1.512-0.187 0.066-0.043 0.316-0.118 0.746-0.227z" inkscape:connector-curvature="0"/>
      <path id="path534" style="fill-rule:evenodd;fill:#f7ce00" d="m16.035 12.761c0.555-0.195 1.016-0.265 1.391-0.211 0.164 0.032 0.332 0.125 0.496 0.293l0.25 0.309c0.027-0.219 0.012-0.398-0.043-0.539-0.109-0.289-0.43-0.434-0.953-0.434-0.289 0.016-0.641 0.082-1.055 0.207-0.375 0.125-0.699 0.262-0.973 0.414-0.609 0.305-1.39 0.567-2.343 0.789-0.262 0.055-0.481 0.11-0.66 0.165l-0.168 0.082-0.02 0.105v0.309l0.145 0.086c-0.125-0.196 0.179-0.368 0.914-0.52 0.207-0.055 0.738-0.215 1.593-0.477 0.426-0.109 0.903-0.304 1.426-0.578z" inkscape:connector-curvature="0"/>
      <path id="path536" style="fill-rule:evenodd;fill:#ffff9c" d="m14.961 13.527c0.164 0.094 0.273 0.227 0.332 0.391-0.539-0.055-0.906-0.075-1.102-0.063-0.882 0.059-1.25 0.043-1.097-0.039 0.086-0.055 0.422-0.144 1.015-0.269 0.414-0.098 0.7-0.106 0.852-0.02zm-0.746 0.434c0.305-0.028 0.633-0.02 0.992 0.019l-1.719 0.352-0.953 0.082c-0.066-0.012-0.129-0.032-0.183-0.063-0.114-0.039-0.153-0.094-0.125-0.164 0.054-0.082 0.109-0.133 0.164-0.144 0.054-0.028 0.214-0.047 0.476-0.063h0.684c0.261 0.016 0.484 0.008 0.664-0.019zm0.973 0.125-0.747 0.414c-0.304 0.125-0.539 0.179-0.703 0.164-0.664-0.055-0.933-0.11-0.808-0.164 0.125-0.055 0.586-0.133 1.386-0.227l0.872-0.187zm0.042-0.664c-0.054-0.083 0.063-0.18 0.352-0.29 0.414-0.207 0.641-0.277 0.684-0.207 0.066 0.082-0.028 0.254-0.293 0.516l-0.539 0.414-0.204-0.433zm0.516 1.058c0.027 0.039-0.008 0.074-0.101 0.102-0.262 0.097-0.618 0.144-1.055 0.144h-0.293c-0.039-0.027 0.098-0.125 0.414-0.289l0.809-0.433 0.144 0.351c0.055 0.055 0.082 0.094 0.082 0.125zm2.012-1.969c-0.485-0.179-1.024-0.117-1.617 0.188-0.582 0.301-1.383 0.586-2.403 0.848-0.953 0.25-1.511 0.421-1.679 0.519-0.278 0.164-0.067 0.344 0.621 0.535 0.691 0.18 1.367 0.242 2.031 0.188 1.672-0.153 2.777-0.606 3.312-1.367 0.305-0.415 0.215-0.719-0.265-0.911zm-1.309 0.578c0.125-0.179 0.188-0.273 0.188-0.289 0.125-0.125 0.277-0.191 0.457-0.207 0.218-0.027 0.363-0.007 0.433 0.063 0.071 0.07 0.035 0.172-0.101 0.312-0.125 0.121-0.457 0.301-0.996 0.536l-0.766 0.332 0.785-0.747zm0.25 0.934c0.207-0.016 0.317-0.019 0.332-0.019 0.082 0 0.09 0.027 0.02 0.082-0.192 0.164-0.477 0.281-0.848 0.351-0.098 0.012-0.16 0-0.187-0.043-0.043-0.082-0.075-0.129-0.106-0.144-0.055-0.043-0.113-0.102-0.183-0.188l-0.063-0.121 1.035 0.082zm0.871-0.289-0.312 0.145-1.43-0.024 1.039-0.351c0.121-0.055 0.328-0.153 0.621-0.29 0.246-0.109 0.383-0.136 0.414-0.082 0.039 0.082 0.028 0.18-0.043 0.29-0.054 0.14-0.152 0.242-0.289 0.312z" inkscape:connector-curvature="0"/>
      <g id="g538">
        <g id="g554" mask="url(#mask546)">
          <g id="g566">
            <g id="g568" clip-path="url(#clipPath558)">
              <g id="g570" transform="translate(0 -.19176)">
                <g id="g574">
                  <g id="g576" clip-path="url(#clipPath562)">
                    <g id="g578">
                      <path id="path580" style="fill-rule:evenodd;fill:#ffff00" d="m15.301 14.207c-0.36-0.043-0.688-0.051-0.992-0.019-0.18 0.027-0.403 0.031-0.664 0.019h-0.684c-0.262 0.012-0.422 0.035-0.477 0.063-0.054 0.011-0.109 0.062-0.164 0.144-0.054 0.109 0.047 0.188 0.309 0.227 0.32 0 0.637-0.028 0.953-0.082l1.719-0.352z" inkscape:connector-curvature="0"/>
                    </g>
                  </g>
                </g>
              </g>
            </g>
          </g>
        </g>
      </g>
      <g id="g582">
        <g id="g598" mask="url(#mask590)">
          <g id="g610">
            <g id="g612" clip-path="url(#clipPath602)">
              <g id="g614" transform="translate(0 -.19176)">
                <g id="g618">
                  <g id="g620" clip-path="url(#clipPath606)">
                    <g id="g622">
                      <path id="path624" style="fill-rule:evenodd;fill:#ffff00" d="m15.375 13.961c-0.055-0.164-0.164-0.297-0.332-0.395-0.148-0.082-0.434-0.074-0.848 0.024-0.082 0.027-0.281 0.074-0.601 0.144-0.235 0.055-0.371 0.098-0.414 0.125-0.153 0.082 0.215 0.094 1.097 0.039 0.196-0.011 0.559 0.008 1.098 0.063z" inkscape:connector-curvature="0"/>
                    </g>
                  </g>
                </g>
              </g>
            </g>
          </g>
        </g>
      </g>
      <g id="g626">
        <g id="g642" mask="url(#mask634)">
          <g id="g654">
            <g id="g656" clip-path="url(#clipPath646)">
              <g id="g658" transform="translate(0 -.19176)">
                <g id="g662">
                  <g id="g664" clip-path="url(#clipPath650)">
                    <g id="g666">
                      <path id="path668" style="fill-rule:evenodd;fill:#ffff00" d="m15.387 13.961c0.234-0.152 0.414-0.289 0.539-0.414 0.262-0.262 0.359-0.434 0.289-0.516-0.039-0.07-0.27 0-0.684 0.207-0.289 0.11-0.406 0.207-0.351 0.289l0.207 0.434z" inkscape:connector-curvature="0"/>
                    </g>
                  </g>
                </g>
              </g>
            </g>
          </g>
        </g>
      </g>
      <g id="g670">
        <g id="g686" mask="url(#mask678)">
          <g id="g698">
            <g id="g700" clip-path="url(#clipPath690)">
              <g id="g702" transform="translate(0 -.19176)">
                <g id="g706">
                  <g id="g708" clip-path="url(#clipPath694)">
                    <g id="g710">
                      <path id="path712" style="fill-rule:evenodd;fill:#ffff00" d="m15.801 13.961c0.98-0.387 1.566-0.676 1.758-0.871 0.14-0.137 0.175-0.238 0.105-0.309-0.07-0.07-0.215-0.09-0.434-0.062-0.179 0.015-0.332 0.082-0.457 0.207 0 0.015-0.062 0.109-0.187 0.289-0.039 0.082-0.301 0.332-0.785 0.746z" inkscape:connector-curvature="0"/>
                    </g>
                  </g>
                </g>
              </g>
            </g>
          </g>
        </g>
      </g>
      <g id="g714">
        <g id="g730" mask="url(#mask722)">
          <g id="g742">
            <g id="g744" clip-path="url(#clipPath734)">
              <g id="g746" transform="translate(0 -.19176)">
                <g id="g750">
                  <g id="g752" clip-path="url(#clipPath738)">
                    <g id="g754">
                      <path id="path756" style="fill-rule:evenodd;fill:#ffff00" d="m16.078 13.941 1.43 0.02 0.312-0.145c0.137-0.07 0.235-0.171 0.289-0.312 0.071-0.109 0.082-0.207 0.043-0.289-0.027-0.055-0.168-0.027-0.414 0.082-0.293 0.141-0.5 0.238-0.621 0.293-0.238 0.094-0.582 0.215-1.039 0.351z" inkscape:connector-curvature="0"/>
                    </g>
                  </g>
                </g>
              </g>
            </g>
          </g>
        </g>
      </g>
      <g id="g758">
        <g id="g774" mask="url(#mask766)">
          <g id="g786">
            <g id="g788" clip-path="url(#clipPath778)">
              <g id="g790" transform="translate(0 -.19176)">
                <g id="g794">
                  <g id="g796" clip-path="url(#clipPath782)">
                    <g id="g798">
                      <path id="path800" style="fill-rule:evenodd;fill:#ffff00" d="m15.801 14.145c0.066 0.152 0.152 0.253 0.246 0.312 0.027 0.012 0.062 0.059 0.105 0.145 0.028 0.039 0.09 0.054 0.188 0.039 0.371-0.067 0.652-0.184 0.848-0.352 0.07-0.055 0.062-0.082-0.02-0.082-0.016 0-0.125 0.008-0.332 0.02-0.18 0.015-0.524-0.012-1.035-0.082z" inkscape:connector-curvature="0"/>
                    </g>
                  </g>
                </g>
              </g>
            </g>
          </g>
        </g>
      </g>
      <g id="g802">
        <g id="g818" mask="url(#mask810)">
          <g id="g830">
            <g id="g832" clip-path="url(#clipPath822)">
              <g id="g834" transform="translate(0 -.19176)">
                <g id="g838">
                  <g id="g840" clip-path="url(#clipPath826)">
                    <g id="g842">
                      <path id="path844" style="fill-rule:evenodd;fill:#ffff00" d="m15.484 14.254-0.808 0.437c-0.321 0.164-0.457 0.262-0.414 0.289h0.289c0.441 0 0.793-0.046 1.054-0.144 0.098-0.027 0.133-0.063 0.106-0.106-0.043-0.054-0.07-0.093-0.082-0.121l-0.145-0.355z" inkscape:connector-curvature="0"/>
                    </g>
                  </g>
                </g>
              </g>
            </g>
          </g>
        </g>
      </g>
      <g id="g846">
        <g id="g862" mask="url(#mask854)">
          <g id="g874">
            <g id="g876" clip-path="url(#clipPath866)">
              <g id="g878" transform="translate(0 -.19176)">
                <g id="g882">
                  <g id="g884" clip-path="url(#clipPath870)">
                    <g id="g886">
                      <path id="path888" style="fill-rule:evenodd;fill:#ffff00" d="m15.258 14.383-0.867 0.183c-0.266 0.059-0.727 0.133-1.391 0.231-0.121 0.055 0.145 0.109 0.809 0.164 0.168 0.016 0.402-0.039 0.703-0.164l0.746-0.414z" inkscape:connector-curvature="0"/>
                    </g>
                  </g>
                </g>
              </g>
            </g>
          </g>
        </g>
      </g>
      <path id="path890" style="fill-rule:evenodd;fill:#bd7400" d="m12.973 10.73c0.082-0.113 0.144-0.223 0.183-0.332 0.086-0.25-0.039-0.523-0.371-0.828-0.164-0.152-0.406-0.262-0.723-0.332-0.304-0.07-0.589-0.074-0.851-0.02-0.207 0.055-0.488 0.145-0.848 0.27-0.429 0.164-0.761 0.289-0.996 0.371-0.773 0.262-1.601 0.43-2.484 0.496-0.719 0.059-1.18 0.086-1.387 0.086-0.055 0-0.051 0.055 0.02 0.164 0.054 0.113 0.117 0.172 0.187 0.188l1.656-0.043c1.188-0.028 1.961-0.082 2.321-0.164 0.191-0.043 0.625-0.145 1.304-0.313 0.481-0.137 0.813-0.199 0.993-0.184 0.304 0.012 0.601 0.266 0.89 0.766l0.106-0.125z" inkscape:connector-curvature="0"/>
      <path id="path892" style="fill-rule:evenodd;fill:#c7be91" d="m9.266 12.468 0.082 0.602-0.082 0.125c-0.055 0.094 0.039 0.144 0.289 0.144 0.07 0 0.125-0.074 0.164-0.226 0.027-0.168 0.023-0.352-0.02-0.563-0.043-0.289-0.137-0.461-0.289-0.515-0.043-0.082-0.105-0.16-0.187-0.227-0.731-0.222-1.285-0.422-1.657-0.601-0.222-0.11-0.332-0.192-0.332-0.25 0-0.039 0.02-0.059 0.051-0.063l-0.422 0.024c-0.086 0.011-0.152 0.054-0.207 0.121l-0.062 0.105 2.34 0.703c-0.844-0.011-1.446-0.035-1.805-0.062-0.649-0.055-1.067-0.129-1.262-0.227 0.012 0.071 0.043 0.141 0.082 0.207 0.055 0.153 0.117 0.231 0.188 0.231 0.109 0 0.668 0.058 1.675 0.183l1.348-0.062c-0.344 0.043-0.578 0.086-0.703 0.125-0.469 0.207-0.754 0.308-0.852 0.308l-0.433 0.043 0.082 0.125c0.07 0.098 0.152 0.157 0.25 0.188 0.191 0.055 0.457-0.035 0.789-0.27 0.137-0.086 0.461-0.222 0.973-0.414v0.246z" inkscape:connector-curvature="0"/>
      <path id="path894" style="fill-rule:evenodd;fill:#c7be91" d="m12.246 10.441c-0.055 0.234-0.207 0.426-0.453 0.578-0.195 0.125-0.637 0.317-1.328 0.582l-0.66 0.27 0.828-0.621c0.082-0.071 0.16-0.188 0.226-0.352 0.082-0.18 0.118-0.305 0.106-0.375-0.016-0.082-0.16-0.109-0.438-0.082-0.027 0.191-0.101 0.367-0.226 0.516-0.485 0.511-0.754 0.8-0.809 0.871l-0.082 0.207 0.227 0.082c0.125 0 0.644 0.152 1.554 0.457 0.11 0.012 0.227 0.039 0.352 0.082 0.082 0.016 0.145-0.008 0.187-0.063 0.082-0.082 0.137-0.164 0.165-0.25-0.469-0.054-0.836-0.109-1.098-0.164l-0.727-0.207 1.66-0.433c0.497-0.141 0.77-0.305 0.829-0.5 0.027-0.137-0.079-0.336-0.313-0.598z" inkscape:connector-curvature="0"/>
      <path id="path896" style="fill-rule:evenodd;fill:#c7be91" d="m12.598 11.226c-0.067-0.097-0.118-0.097-0.145 0-0.027 0.18-0.062 0.344-0.101 0.496-0.043 0.18-0.235 0.375-0.582 0.582-0.399 0.207-0.676 0.368-0.829 0.477-0.261 0.164-0.929 0.25-2.007 0.25-0.305 0-0.704-0.125-1.204-0.375-0.425-0.219-0.855-0.488-1.281-0.809-0.32-0.234-0.504-0.48-0.558-0.746-0.032-0.137-0.024-0.246 0.019-0.332-0.125 0.031-0.25 0.149-0.375 0.352-0.082 0.152-0.09 0.293-0.019 0.418 0.015 0.039 0.109 0.164 0.289 0.371 0.125 0.137 0.375 0.316 0.746 0.539 0.387 0.234 0.754 0.414 1.097 0.539 0.856 0.316 1.45 0.391 1.782 0.226 0.082-0.042 0.402-0.082 0.953-0.125 0.539-0.027 0.902-0.082 1.097-0.164 0.415-0.164 0.821-0.503 1.223-1.015 0.094-0.153 0.129-0.281 0.102-0.395-0.028-0.054-0.094-0.152-0.207-0.289z" inkscape:connector-curvature="0"/>
      <path id="path898" style="fill-rule:evenodd;fill:#f7ce00" d="m13.012 10.769c0-0.496-0.301-0.832-0.91-1.015-0.317-0.11-0.747-0.122-1.286-0.04-0.453 0.083-0.875 0.2-1.261 0.352-0.332 0.125-0.789 0.234-1.367 0.332-0.579 0.098-1.114 0.152-1.594 0.164-0.332 0.016-0.602 0.035-0.809 0.063l-0.226 0.062-0.086 0.188c-0.039 0.082-0.067 0.191-0.082 0.328l-0.02 0.187 0.125 0.188c-0.027-0.168 0.082-0.305 0.332-0.414 0.219-0.086 0.516-0.133 0.891-0.149 0.273 0 0.945-0.082 2.008-0.246 0.304-0.015 0.585-0.07 0.847-0.168 0.387-0.137 0.727-0.234 1.016-0.289 0.457-0.098 0.82-0.125 1.098-0.082 0.152 0.027 0.339 0.098 0.558 0.207 0.141 0.07 0.242 0.164 0.313 0.289 0.011 0.028 0.062 0.145 0.144 0.352l0.164 0.621 0.086-0.332c0.055-0.246 0.074-0.445 0.059-0.598z" inkscape:connector-curvature="0"/>
      <path id="path900" style="fill-rule:evenodd;fill:#ffff9c" d="m8.043 12.218c0.344-0.023 0.703-0.019 1.078 0.024l-1.035 0.394c-0.375 0.11-0.656 0.129-0.852 0.063-0.746-0.32-1.035-0.504-0.871-0.563 0.098-0.027 0.348-0.019 0.746 0.024 0.485 0.039 0.793 0.058 0.934 0.058zm0-0.515c0.371 0.054 0.746 0.164 1.117 0.332-1.008 0.027-1.703 0.035-2.09 0.019-0.234-0.015-0.492-0.047-0.769-0.101l-0.328-0.106c-0.071-0.043-0.133-0.09-0.188-0.144-0.125-0.114-0.152-0.215-0.082-0.313 0.082-0.121 0.164-0.191 0.246-0.207 0.071-0.011 0.25 0.016 0.539 0.086 0.18 0.039 0.442 0.113 0.785 0.227 0.321 0.109 0.575 0.179 0.77 0.207zm1.016-0.477c0.148 0.207 0.226 0.457 0.226 0.746-0.594-0.261-1.008-0.422-1.242-0.476-0.938-0.235-1.348-0.379-1.223-0.434 0.071-0.043 0.25-0.07 0.539-0.086h0.727c0.301-0.012 0.496-0.012 0.578 0 0.164 0.031 0.297 0.113 0.395 0.25zm0.414 0.703-0.086-0.785c0-0.168 0.179-0.289 0.539-0.375 0.109-0.039 0.293-0.101 0.539-0.183 0.195-0.043 0.297-0.02 0.312 0.062 0.055 0.164-0.117 0.418-0.519 0.766-0.125 0.109-0.297 0.226-0.516 0.351l-0.269 0.164zm-1.285 1.16c-0.223-0.054-0.34-0.093-0.352-0.121-0.027-0.043 0.172-0.152 0.602-0.332l1.097-0.457v0.641c0.039 0.125 0.063 0.211 0.063 0.25 0.011 0.082-0.043 0.133-0.168 0.144-0.235 0.028-0.649-0.011-1.242-0.125zm1.679-0.328c-0.058-0.086-0.097-0.211-0.125-0.375-0.015-0.082-0.031-0.156-0.043-0.226l0.457 0.226c0.344 0.153 0.578 0.235 0.703 0.25 0.235 0.055 0.36 0.082 0.371 0.082 0.098 0.028 0.098 0.079 0 0.145-0.109 0.07-0.289 0.137-0.539 0.207-0.246 0.07-0.441 0.098-0.578 0.082-0.113-0.012-0.175-0.055-0.187-0.121-0.028-0.156-0.047-0.246-0.059-0.27zm2.731-0.664c0.5-0.593 0.511-1.133 0.043-1.617-0.485-0.484-1.118-0.574-1.907-0.269-0.785 0.316-1.808 0.523-3.066 0.621-1.215 0.097-1.926 0.195-2.133 0.289-0.371 0.195-0.199 0.558 0.52 1.097 0.703 0.555 1.449 0.891 2.234 1.016 1.961 0.32 3.399-0.062 4.309-1.137zm-0.743-1.718c0.262 0.039 0.418 0.125 0.473 0.25 0.059 0.136-0.027 0.3-0.246 0.496-0.18 0.164-0.621 0.359-1.324 0.578l-1.016 0.269 1.199-0.972c0.305-0.457 0.61-0.664 0.914-0.621zm0.704 1.179c0.027 0.153-0.024 0.317-0.145 0.496-0.125 0.196-0.285 0.325-0.476 0.395l-0.395 0.144-1.617-0.515 1.328-0.231c0.148-0.039 0.418-0.136 0.808-0.289 0.317-0.097 0.481-0.097 0.497 0z" inkscape:connector-curvature="0"/>
      <g id="g902">
        <g id="g918" mask="url(#mask910)">
          <g id="g930">
            <g id="g932" clip-path="url(#clipPath922)">
              <g id="g934" transform="translate(0 -.19176)">
                <g id="g938">
                  <g id="g940" clip-path="url(#clipPath926)">
                    <g id="g942">
                      <path id="path944" style="fill-rule:evenodd;fill:#ffff00" d="m9.141 12.062c-0.375-0.167-0.746-0.277-1.118-0.332-0.195-0.027-0.449-0.097-0.769-0.207-0.344-0.113-0.606-0.187-0.785-0.23-0.289-0.066-0.469-0.094-0.539-0.082-0.082 0.016-0.164 0.082-0.25 0.207-0.11 0.152-0.02 0.305 0.269 0.457 0.348 0.125 0.711 0.191 1.098 0.207 0.387 0.012 1.086 0.008 2.094-0.02z" inkscape:connector-curvature="0"/>
                    </g>
                  </g>
                </g>
              </g>
            </g>
          </g>
        </g>
      </g>
      <g id="g946">
        <g id="g962" mask="url(#mask954)">
          <g id="g974">
            <g id="g976" clip-path="url(#clipPath966)">
              <g id="g978" transform="translate(0 -.19176)">
                <g id="g982">
                  <g id="g984" clip-path="url(#clipPath970)">
                    <g id="g986">
                      <path id="path988" style="fill-rule:evenodd;fill:#ffff00" d="m9.164 12.082c0-0.289-0.074-0.539-0.226-0.746-0.098-0.137-0.227-0.219-0.395-0.25-0.082-0.012-0.273-0.012-0.578 0h-0.727c-0.289 0.016-0.468 0.043-0.539 0.086-0.121 0.055 0.285 0.199 1.223 0.433 0.234 0.055 0.648 0.215 1.242 0.477z" inkscape:connector-curvature="0"/>
                    </g>
                  </g>
                </g>
              </g>
            </g>
          </g>
        </g>
      </g>
      <g id="g990">
        <g id="g1006" mask="url(#mask998)">
          <g id="g1018">
            <g id="g1020" clip-path="url(#clipPath1010)">
              <g id="g1022" transform="translate(0 -.19176)">
                <g id="g1026">
                  <g id="g1028" clip-path="url(#clipPath1014)">
                    <g id="g1030">
                      <path id="path1032" style="fill-rule:evenodd;fill:#ffff00" d="m9.562 12.082c0.317-0.164 0.583-0.34 0.79-0.52 0.398-0.343 0.57-0.597 0.515-0.765-0.012-0.082-0.117-0.102-0.308-0.063-0.25 0.086-0.43 0.145-0.539 0.188-0.36 0.082-0.54 0.207-0.54 0.371l0.082 0.789z" inkscape:connector-curvature="0"/>
                    </g>
                  </g>
                </g>
              </g>
            </g>
          </g>
        </g>
      </g>
      <g id="g1034">
        <g id="g1050" mask="url(#mask1042)">
          <g id="g1062">
            <g id="g1064" clip-path="url(#clipPath1054)">
              <g id="g1066" transform="translate(0 -.19176)">
                <g id="g1070">
                  <g id="g1072" clip-path="url(#clipPath1058)">
                    <g id="g1074">
                      <path id="path1076" style="fill-rule:evenodd;fill:#ffff00" d="m9.68 12.082c1.269-0.305 2.05-0.586 2.34-0.848 0.222-0.195 0.304-0.359 0.25-0.5-0.055-0.125-0.215-0.207-0.477-0.246-0.305-0.043-0.609 0.164-0.91 0.621-0.086 0.11-0.485 0.434-1.203 0.973z" inkscape:connector-curvature="0"/>
                    </g>
                  </g>
                </g>
              </g>
            </g>
          </g>
        </g>
      </g>
      <g id="g1078">
        <g id="g1094" mask="url(#mask1086)">
          <g id="g1106">
            <g id="g1108" clip-path="url(#clipPath1098)">
              <g id="g1110" transform="translate(0 -.19176)">
                <g id="g1114">
                  <g id="g1116" clip-path="url(#clipPath1102)">
                    <g id="g1118">
                      <path id="path1120" style="fill-rule:evenodd;fill:#ffff00" d="m10.238 12.004 1.617 0.519 0.395-0.148c0.191-0.066 0.352-0.199 0.477-0.391 0.121-0.179 0.171-0.347 0.144-0.5-0.016-0.093-0.18-0.093-0.496 0-0.387 0.153-0.656 0.25-0.809 0.293-0.32 0.067-0.761 0.145-1.328 0.227z" inkscape:connector-curvature="0"/>
                    </g>
                  </g>
                </g>
              </g>
            </g>
          </g>
        </g>
      </g>
      <g id="g1122">
        <g id="g1138" mask="url(#mask1130)">
          <g id="g1150">
            <g id="g1152" clip-path="url(#clipPath1142)">
              <g id="g1154" transform="translate(0 -.19176)">
                <g id="g1158">
                  <g id="g1160" clip-path="url(#clipPath1146)">
                    <g id="g1162">
                      <path id="path1164" style="fill-rule:evenodd;fill:#ffff00" d="m9.68 12.129c0.027 0.262 0.082 0.461 0.164 0.598 0.015 0.031 0.035 0.117 0.062 0.269 0.016 0.07 0.078 0.113 0.188 0.125 0.136 0.016 0.332-0.012 0.582-0.082 0.246-0.07 0.426-0.137 0.535-0.207 0.098-0.07 0.098-0.117 0-0.144-0.012 0-0.137-0.028-0.371-0.083-0.207-0.031-0.594-0.187-1.16-0.476z" inkscape:connector-curvature="0"/>
                    </g>
                  </g>
                </g>
              </g>
            </g>
          </g>
        </g>
      </g>
      <g id="g1166">
        <g id="g1182" mask="url(#mask1174)">
          <g id="g1194">
            <g id="g1196" clip-path="url(#clipPath1186)">
              <g id="g1198" transform="translate(0 -.19176)">
                <g id="g1202">
                  <g id="g1204" clip-path="url(#clipPath1190)">
                    <g id="g1206">
                      <path id="path1208" style="fill-rule:evenodd;fill:#ffff00" d="m9.738 12.066-1.097 0.454c-0.43 0.179-0.629 0.292-0.602 0.332 0.016 0.027 0.133 0.07 0.352 0.125 0.593 0.109 1.007 0.152 1.242 0.125 0.125-0.016 0.179-0.063 0.168-0.145-0.028-0.098-0.051-0.18-0.063-0.25v-0.641z" inkscape:connector-curvature="0"/>
                    </g>
                  </g>
                </g>
              </g>
            </g>
          </g>
        </g>
      </g>
      <g id="g1210">
        <g id="g1226" mask="url(#mask1218)">
          <g id="g1238">
            <g id="g1240" clip-path="url(#clipPath1230)">
              <g id="g1242" transform="translate(0 -.19176)">
                <g id="g1246">
                  <g id="g1248" clip-path="url(#clipPath1234)">
                    <g id="g1250">
                      <path id="path1252" style="fill-rule:evenodd;fill:#ffff00" d="m9.234 12.344c-0.371-0.039-0.73-0.047-1.074-0.02-0.14 0-0.449-0.019-0.933-0.062-0.399-0.043-0.649-0.047-0.747-0.02-0.164 0.055 0.125 0.238 0.872 0.559 0.191 0.07 0.476 0.047 0.847-0.063l1.035-0.394z" inkscape:connector-curvature="0"/>
                    </g>
                  </g>
                </g>
              </g>
            </g>
          </g>
        </g>
      </g>
    </g>
  </g>
<metadata><rdf:RDF><cc:Work><dc:format>image/svg+xml</dc:format><dc:type rdf:resource="http://purl.org/dc/dcmitype/StillImage"/><cc:license rdf:resource="http://creativecommons.org/licenses/publicdomain/"/><dc:publisher><cc:Agent rdf:about="http://openclipart.org/"><dc:title>Openclipart</dc:title></cc:Agent></dc:publisher></cc:Work><cc:License rdf:about="http://creativecommons.org/licenses/publicdomain/"><cc:permits rdf:resource="http://creativecommons.org/ns#Reproduction"/><cc:permits rdf:resource="http://creativecommons.org/ns#Distribution"/><cc:permits rdf:resource="http://creativecommons.org/ns#DerivativeWorks"/></cc:License></rdf:RDF></metadata></svg>
